<svg xmlns="http://www.w3.org/2000/svg"
    viewBox="0 0 1081.002 1004.937">
    <path
        d="M-11776.033-14959.067h-1002.934v-40.031h-37.531v-77.076h76.568v-37.032h926.86v37.032h76.573v77.076h-39.537v40.031Zm-37.036-232.215h-926.86v-39.038h-39.037v-38.034h-37.531v-617.573h37.531v-39.042h39.037V-15963h926.86v38.033h37.036v39.042l39.537,0v617.569h-39.537v38.034h-37.036v39.038Zm-849.789-116.111v39.038l772.722,0v-39.042h37.032v-38.033h40.035v-463.434h-40.035v-39.034h-37.032v-38.034h-772.722v38.034h-39.038v39.034h-38.033v463.434h38.033v38.033Z"
        transform="translate(12816.998 15963.504)" fill="currentColor" />
</svg>