<?xml version="1.0" encoding="UTF-8" ?>
<svg version="1.1" xmlns="http://www.w3.org/2000/svg" shape-rendering="crispEdges">
<rect x="1200" y="0" width="800" height="200" fill="currentColor" />
<rect x="900" y="100" width="300" height="200" fill="currentColor" />
<rect x="2000" y="100" width="300" height="200" fill="currentColor" />
<rect x="700" y="200" width="200" height="200" fill="currentColor" />
<rect x="2300" y="200" width="200" height="200" fill="currentColor" />
<rect x="600" y="300" width="100" height="200" fill="currentColor" />
<rect x="2500" y="300" width="100" height="200" fill="currentColor" />
<rect x="500" y="400" width="100" height="200" fill="currentColor" />
<rect x="700" y="400" width="100" height="100" fill="currentColor" />
<rect x="2400" y="400" width="100" height="100" fill="currentColor" />
<rect x="2600" y="400" width="100" height="200" fill="currentColor" />
<rect x="400" y="500" width="100" height="300" fill="currentColor" />
<rect x="2700" y="500" width="100" height="300" fill="currentColor" />
<rect x="300" y="600" width="100" height="300" fill="currentColor" />
<rect x="2800" y="600" width="100" height="300" fill="currentColor" />
<rect x="200" y="700" width="100" height="500" fill="currentColor" />
<rect x="2900" y="700" width="100" height="500" fill="currentColor" />
<rect x="1000" y="800" width="300" height="500" fill="currentColor" />
<rect x="1900" y="800" width="300" height="500" fill="currentColor" />
<rect x="100" y="900" width="100" height="1400" fill="currentColor" />
<rect x="900" y="900" width="100" height="300" fill="currentColor" />
<rect x="1300" y="900" width="100" height="300" fill="currentColor" />
<rect x="1800" y="900" width="100" height="300" fill="currentColor" />
<rect x="2200" y="900" width="100" height="300" fill="currentColor" />
<rect x="3000" y="900" width="100" height="1400" fill="currentColor" />
<rect x="0" y="1200" width="100" height="800" fill="currentColor" />
<rect x="3100" y="1200" width="100" height="800" fill="currentColor" />
<rect x="200" y="2000" width="100" height="500" fill="currentColor" />
<rect x="900" y="2000" width="200" height="200" fill="currentColor" />
<rect x="2100" y="2000" width="200" height="200" fill="currentColor" />
<rect x="2900" y="2000" width="100" height="500" fill="currentColor" />
<rect x="1100" y="2100" width="100" height="300" fill="currentColor" />
<rect x="2000" y="2100" width="100" height="300" fill="currentColor" />
<rect x="1000" y="2200" width="100" height="100" fill="currentColor" />
<rect x="1200" y="2200" width="200" height="300" fill="currentColor" />
<rect x="1800" y="2200" width="200" height="200" fill="currentColor" />
<rect x="2100" y="2200" width="100" height="100" fill="currentColor" />
<rect x="300" y="2300" width="100" height="300" fill="currentColor" />
<rect x="1400" y="2300" width="400" height="200" fill="currentColor" />
<rect x="2800" y="2300" width="100" height="300" fill="currentColor" />
<rect x="400" y="2400" width="100" height="300" fill="currentColor" />
<rect x="1800" y="2400" width="100" height="100" fill="currentColor" />
<rect x="2700" y="2400" width="100" height="300" fill="currentColor" />
<rect x="500" y="2600" width="100" height="200" fill="currentColor" />
<rect x="2600" y="2600" width="100" height="200" fill="currentColor" />
<rect x="600" y="2700" width="200" height="200" fill="currentColor" />
<rect x="2400" y="2700" width="200" height="200" fill="currentColor" />
<rect x="800" y="2800" width="100" height="200" fill="currentColor" />
<rect x="2300" y="2800" width="100" height="200" fill="currentColor" />
<rect x="700" y="2900" width="100" height="100" fill="currentColor" />
<rect x="900" y="2900" width="300" height="200" fill="currentColor" />
<rect x="2000" y="2900" width="300" height="200" fill="currentColor" />
<rect x="2400" y="2900" width="100" height="100" fill="currentColor" />
<rect x="1200" y="3000" width="800" height="200" fill="currentColor" />
</svg>
