<svg xmlns="http://www.w3.org/2000/svg"
    viewBox="0 0 2285.901 385.001" fill="currentColor">
    <path
        d="M-6405.541-364v-15.686h-25v-25h25v-21.059l-45.065.152v-35.583l-36.809-.409.409-193.047h36.4v-35.993l45.065.152v-18.194h-25v-25h25V-749h31v15.333h25v25h-25v18.3l45,.152v35.583h36.811v193.456l-36.811-.409V-426l-45,.152v21.164h25v25h-25V-364Zm-33.2-112.307,33.2-.14V-639.5h-33.2Zm64.206-.27,33.135-.139V-639.5h-33.135ZM-6230.972-426v-35.583l-36.4.409-.409-51.124h48.67v35.993l97.344-.409v-56.442h-109.2v-35.583l-36.4.409-.409-86.3h36.811v-35.583l121.063-.409v35.993h36.809v50.715h-48.669V-639.5h-97.344v56.442l109.2-.409v35.174h36.809v86.708l-36.809.409v35.583ZM-6763.9-690.623l157.463.409v35.583h36.811v50.715H-6618.3V-639.5h-97.341v56.033l72.8.409.409,49.9h-73.212V-426l-48.67.409Zm-183.233,229.448-36.811-.409.409-193.047h36.4v-35.993l121.063.409v35.583h36.811v193.456l-36.811-.409V-426l-121.063.409Zm11.861-15.132,97.342-.409V-639.5h-97.342Zm-325.155-214.317,121.063.409.409,35.583h35.993v35.583h36.811v121.882h-36.811v35.581h-36.4l.409,35.583-121.882.409Zm48.263,214.317,60.94-.409.409-35.583h35.993v-91.617h-36.4l.409-35.583h-61.349ZM-7352.041-426v-35.583h-37.22v-35.581H-7431.8V-426l-48.672.409.409-229.039h36.4v-35.993l121.064.409v35.583h36.809v121.473h-36.809v35.992h-17.588v20.859l35.993-.409v51.124ZM-7431.8-548.292h97.342V-639.5H-7431.8ZM-7554.087-426v-71.165h-97.344v71.574l-48.261-.409-.409-193.047h36.811v-35.583h36.4l-.409-35.993,48.672.409.409,35.583h35.993v35.583h36.809v193.456Zm-97.344-122.291h97.344v-55.624h-36.4l.409-35.583h-24.949l-.409,35.583h-35.993ZM-7882.925-426v-35.583l-36.4.409-.409-87.117h36.809v-34.765l109.2-.409V-639.5h-97.341v35.583h-48.261l-.409-86.3,157.875-.409v35.993h36.809v85.889l-36.809.409v35.174h-109.2v56.851l97.341-.409V-512.3h48.672v86.708Zm-183.231-50.715,36.4.409V-639.5h-36.811l.409-51.124,121.064.409.409,50.715h-37.22l.409,162.783,36.4.409.409,50.306-121.882.409Zm-110.021,15.541-36.811-.409v-71.574h-24.54l.409,71.983-37.218-.409.409,35.583-48.263.409v-35.583l-36.812-.409.409-229.039,48.263.409v213.5l24.541.409-.409-71.985h37.218l-.407-106.339h48.261v106.339h36.811v71.576l24.947.409V-690.623l47.854.409v229.039l-35.993-.409V-426l-48.67.409Z"
        transform="translate(8359.001 749)" />
</svg>