<svg xmlns="http://www.w3.org/2000/svg" viewBox="0 0 1080 848.643">
    <path
        d="M810.084,848.643H771.524V810.084h-38.56V732.965h77.119v-38.56h38.559v-38.56H771.524v38.56H655.846V578.727H771.524v-38.56h38.559V385.93h38.559V77.119h77.119V810.084H848.643v38.559Zm-540.168,0V810.084h38.56v38.559Zm-38.559,0V694.405h38.559V848.643Zm38.559-38.559V732.965h77.119v77.119Zm-115.678,0V771.524H77.119v-38.56H38.56v-38.56H0V424.489H38.56V308.476h38.56V192.8h38.559V115.678h38.56V77.119h77.119V38.56h77.119V0H424.489V347.035H308.476V385.93H231.357V810.084Zm810.084-38.559V192.8h38.559V771.524Zm-38.559,0V115.678h38.559V771.524Zm77.119-38.56V308.476h38.56V732.965Zm-347.035,0v-38.56h38.56v38.56Zm-38.559,0v-192.8h38.559v192.8Zm-154.238,0H385.93v-38.56H308.476V578.727H424.489v-38.56h38.559V77.119H617.287V38.56h38.559V0H771.524V347.035H655.846V385.93H617.287V732.965Zm578.392-38.56V424.489H1080V694.405Zm-771.524-38.56V540.168h38.56V655.846Zm-38.559,0V385.93h38.559V655.846ZM771.524,385.93V38.56h77.119V385.93Zm-347.035,0V38.56h38.559V385.93Z"
        fill="currentColor" />
</svg>