<svg xmlns="http://www.w3.org/2000/svg" viewBox="0 0 1080 1080">
    <path
        d="M655.484,1080v-38.629h77.258V1080Zm-308.629,0v-38.629h77.258V1080Zm424.516-38.629H655.484V810H617.258V771.371H771.371V732.742H810V694.113h38.226V617.258h38.629V462.742H848.226V424.113H810V346.856h38.226V231.371h38.629V154.113h38.629v810H886.856v38.629H810v38.629Zm-501.371,0V964.113H424.113v77.258Zm-38.629-38.629V925.484H270v77.258Zm-38.629,0V848.226h38.629v154.516Zm-38.629-38.629V810h38.629V964.113Zm771.371-38.629V192.742h38.629V925.484Zm-809.6,0V886.856H77.258V810H38.629V694.113H0v-270H38.629V308.629H77.258V231.371h38.629V192.742h38.227V154.113h38.629V115.887H270V77.258h76.855V38.629h77.258V0H655.484V270H308.629V231.371H192.742v540H154.113V925.484Zm848.226-38.629V231.371h38.629V886.856Zm-655.484,0V810H424.113v76.855ZM270,848.226V732.742h38.629V848.226ZM1002.742,810V308.629h38.629V810Zm-694.114,0V771.371H462.742V810Zm-77.258,0V694.113H270V810Zm-38.629-38.629V617.258h38.629V771.371Zm848.629-77.258v-270H1080v270ZM192.742,462.742V231.371h38.629V462.742Zm38.629-38.629V346.856H270v77.258ZM617.258,308.629V270h76.856v38.629Zm-231.773,0V270h77.258v38.629ZM732.742,270V231.371h38.629V270Zm-77.258,0V38.629h77.258V270ZM810,231.371V115.887h76.855V231.371Zm-77.258,0V77.258H810V231.371Z"
        fill="currentColor" />
</svg>