<svg xmlns="http://www.w3.org/2000/svg" viewBox="0 0 3201 290" fill="currentColor">
    <path
        d="M-5771,2349.361v-63.425c10.961-7.161,35.239,11.161,49,19.619q.016-.142.031-.281c1.253-11.385,6.835-21.86,14.382-30.324,8.264-9.269,18.738-16.23,29.287-22.621,10.387-6.294,21.619-13.2,34.2-13.033,10.955.146,21.276,5.643,29.309,12.786,2,1.782,3.948,3.632,5.855,5.52.521-1.264.807-2.614,1.242-3.91.572-1.709,1.289-3.387,1.962-5.059a36.911,36.911,0,0,1,3.816-7.733,7.212,7.212,0,0,1,2.716-2.432c.023-.01.045-.022.069-.032l.018-.009a17.982,17.982,0,0,1,4.058-1.2c1.386-.275,2.787-.472,4.175-.73h0l.133-.023.223-.043c1.757-.343,3.492-.8,5.211-1.29l.166-.048c3.467-1,6.879-2.183,10.354-3.155a61.258,61.258,0,0,1,10.547-2.213,22.2,22.2,0,0,1,9.909,1.195,44.046,44.046,0,0,1,4.567,2.142q2.572,1.312,5.159,2.6c3.38,1.678,6.77,3.335,10.146,5.021,2.563,1.28,5.088,2.651,7.688,3.858,3.282-1.637,6.577-3.248,9.859-4.881q2.585-1.284,5.161-2.594a44.288,44.288,0,0,1,4.52-2.125l.046-.017a22.2,22.2,0,0,1,9.91-1.195,61.351,61.351,0,0,1,10.547,2.212c3.476.972,6.887,2.155,10.353,3.156l.165.048c1.721.494,3.456.947,5.212,1.291l.255.048.1.019h0c1.389.259,2.79.456,4.174.731.379.075.759.155,1.137.244a45.67,45.67,0,0,1,4.65-4.393,35.815,35.815,0,0,1,7.9-4.955c3-1.377,6.116-2.469,9.155-3.751,3.275-1.38,6.395-3.108,9.572-4.7,3.376-1.686,6.765-3.341,10.144-5.021q2.585-1.286,5.16-2.6a44.41,44.41,0,0,1,4.521-2.125l.046-.017a22.243,22.243,0,0,1,9.909-1.195,61.516,61.516,0,0,1,10.547,2.213c1.621.453,3.228.953,4.833,1.458a6.577,6.577,0,0,1-.233-1.932c.042-.86.847-1.8,2.229-2.771,2.879-2.025,8.26-4.184,14.448-6.04l.045-.013.029-.009c3.388-1.014,7.013-1.937,10.6-2.7,13.271-2.808,24.178-7.676,36.436-13.048,15.176-6.652,25.392-6.674,48.048-16.837.055-.024.111-.048.168-.069l.006,0,.019-.007a4.234,4.234,0,0,1,4.691,1.486,4.3,4.3,0,0,1,.438.561q.084.13.156.265h-.017c.647.934,1.143,1.918.78,2.836a2.794,2.794,0,0,1-1.493,1.438q-.1.052-.2.1s-2.05.754-5.217,2c6.729-.242,18.8,2.127,25.621,3.594,1.315.282,2.435.531,3.282.721q8.918,2.014,17.96,3.863l2.473.507q.749.152,1.5.307,7.6,1.551,15.236,3.065c.075-.236.156-.469.248-.7.063-.156.13-.312.2-.465a13.641,13.641,0,0,1,.851-2.168,12,12,0,0,1,3.28-3.606c.639-.518,1.288-1.022,1.923-1.542s1.267-1.015,1.935-1.477a8.054,8.054,0,0,1,4.61-1.8c1.783.065,3.234,1.224,4.768,1.989,1.9.947,3.793,1.888,5.65,2.914.425.236.853.472,1.279.712q.135-.152.276-.3c2.323-2.453,5.33-4.107,8.254-5.728,1.857-1.027,3.752-1.968,5.65-2.914,1.534-.766,2.986-1.923,4.77-1.989a7.021,7.021,0,0,1,3.862,1.3q.068-.172.139-.344a16.4,16.4,0,0,1,3.233-5.013c2.639-2.788,6.055-4.667,9.378-6.507,2.11-1.167,4.264-2.236,6.42-3.312,1.742-.869,3.392-2.186,5.418-2.26,1.9-.07,3.729,1,5.237,2.045.759.524,1.484,1.1,2.2,1.68.636.518,1.28,1.023,1.919,1.537a6.779,6.779,0,0,1,.366-1.271s-.026.693.018,1.581c.563.459,1.122.936,1.644,1.447a14.219,14.219,0,0,0,.471-3.471,15.543,15.543,0,0,1,.819,4.734l.414-.055a11.492,11.492,0,0,1,1.339-2.989,8.266,8.266,0,0,0-.669,2.9l1.033-.136a6.061,6.061,0,0,1,2.124-2.729,9.515,9.515,0,0,0-1.028,2.585l.645-.085a11.747,11.747,0,0,1,1.955-3.572,6.83,6.83,0,0,0-.565,3.388l.91-.12a11.29,11.29,0,0,1,1.822-3.821,9.217,9.217,0,0,0-1.213,3.741l.218-.029a20.692,20.692,0,0,0,1.007-2.9,10.415,10.415,0,0,1-.307,2.806l.294-.039a7.859,7.859,0,0,1,1.83-2.279,10.131,10.131,0,0,0-.813,2.145l.185-.024a5.54,5.54,0,0,1,1.525-2.038,6.822,6.822,0,0,0-1.111,1.983l.132-.017c1.354-1.476,2.77-.783,2.954-.39l4.163-.549a11.765,11.765,0,0,0-5.331-6.233,11.825,11.825,0,0,1,7.853,4.767s-1.683-5.329-3.366-9.253a16.169,16.169,0,0,1,6.17,9.534s.841-8.694,2.243-11.5c0,0-.561,6.17.842,8.413,0,0,2.243-1.963,2.8-8.974a27.852,27.852,0,0,1,.842,10.376s1.681-5.324,3.364-7.289c-.058.11-2.5,4.807-.841,8.412,0,0,.841-5.609,5.049-8.134,0,0-1.959,2.68-2.607,8.114l.089.083a8.214,8.214,0,0,1,.932-1.2c-.006-.078-.008-.12-.008-.12l.034.092q.154-.162.3-.3a4.143,4.143,0,0,0-.412-.6,3.4,3.4,0,0,1,.494.522,6.154,6.154,0,0,1,1.553-1.081,9.606,9.606,0,0,0-1.124,1.688,14.944,14.944,0,0,1,.75,1.324l1.354-.034a8.276,8.276,0,0,0-.813-2.095,10.247,10.247,0,0,1,1.627,2.074l.77-.019a9.754,9.754,0,0,0-.722-1.154,5.322,5.322,0,0,1,1.44,1.136l1.233-.031a4.932,4.932,0,0,0-.7-.439,6.231,6.231,0,0,1,1.052.242,8.126,8.126,0,0,0-.557-1.2,6.679,6.679,0,0,1,.9,1.319l.157.059.957-.023a16.039,16.039,0,0,1,.251-2.776c-.037-.09-.075-.178-.112-.265.01.006.062.039.145.1.048-.236.083-.363.083-.363.021.164.045.323.069.477a9.194,9.194,0,0,1,2.264,2.694,19.2,19.2,0,0,0-.167-2.954,13.058,13.058,0,0,1,.972,3l.61-.015a17.121,17.121,0,0,1,.985-4.1,15.92,15.92,0,0,0,.158,4.073l.45-.011a9.331,9.331,0,0,1,1-1.281,14.943,14.943,0,0,0,.546-3.112,15.188,15.188,0,0,1,.574,4.343l.573-.014a10.136,10.136,0,0,1,1.334-2.507,8.4,8.4,0,0,0-.781,2.494l1.159-.027a5.887,5.887,0,0,1,2.1-2.3,9.664,9.664,0,0,0-1.088,2.278l.666-.016a11.513,11.513,0,0,1,2.047-3.251,7.048,7.048,0,0,0-.756,3.222l.96-.022a11.107,11.107,0,0,1,1.989-3.638,9.182,9.182,0,0,0-1.4,3.625l.227-.005a20.469,20.469,0,0,0,1.14-2.807,10.432,10.432,0,0,1-.454,2.792l.283-.007a7.9,7.9,0,0,1,1.961-2.2,10.175,10.175,0,0,0-.95,2.178l.163,0a5.629,5.629,0,0,1,1.676-2.046,6.981,6.981,0,0,0-1.265,2.037h.064c1.491-1.591,2.961-.751,3.1-.342a2.016,2.016,0,0,0-1.818.14,2.818,2.818,0,0,0-.275.179l2.443-.054q.053-.132.115-.265s0,.1-.006.262l3.741-.082a13.254,13.254,0,0,0,.139-1.439,6.117,6.117,0,0,1,.263,1.43l.483-.01c.241-.5.546-1.062.933-1.7a13.948,13.948,0,0,0-.394,1.688l.576-.012a11.035,11.035,0,0,1,1.078-1.956,11.175,11.175,0,0,0-.451,1.943l.763-.016a11.338,11.338,0,0,0,.248-1.645,12.6,12.6,0,0,1,.284,1.634l.25-.005c.091-.32.2-.695.306-1.069,0,0,.05.5.151,1.06l.775-.017a4.174,4.174,0,0,0,.193-2.022,6.829,6.829,0,0,1,.922,2l.215,0a11.174,11.174,0,0,0-.438-1.855,11.158,11.158,0,0,1,1.029,1.843l.6-.012a13.774,13.774,0,0,0-.37-1.551c.347.57.628,1.083.855,1.541l.579-.012a5.791,5.791,0,0,1,.246-1.248c.02.448.058.861.109,1.24l4.287-.088a1.849,1.849,0,0,1,2.468-.05l.39-.008a6.186,6.186,0,0,0-1.021-1.53,5.091,5.091,0,0,1,1.378,1.522l.283-.006a9.75,9.75,0,0,0-.77-1.646,6.8,6.8,0,0,1,1.57,1.63l.517-.01a9.808,9.808,0,0,1-.3-2.2,19.04,19.04,0,0,0,.852,2.192l.37-.007a8.383,8.383,0,0,0-1.252-3,9.6,9.6,0,0,1,1.734,2.988l1.212-.024a7.93,7.93,0,0,0-.753-2.526,10.007,10.007,0,0,1,1.4,1.95c-.254-.552-.521-1.109-.784-1.622a6.526,6.526,0,0,1,1.107.815c-.057-.091-.093-.145-.1-.155a5.456,5.456,0,0,1,1.595,1.489l1.494-.028a8.427,8.427,0,0,0-.607-1.627,6.3,6.3,0,0,1,.768,1.236,13.543,13.543,0,0,1,.613-3.233,17.515,17.515,0,0,0,.32,3.6l.232,0a14.241,14.241,0,0,1,.548-3.423,14.993,14.993,0,0,0,.539,3.086,13.639,13.639,0,0,0,.484-3.742,14.93,14.93,0,0,1,.855,4.033l.278-.005a19.046,19.046,0,0,0,0-3.042,10.212,10.212,0,0,1,.665,2.265,7.229,7.229,0,0,1,.808-1.606,8.462,8.462,0,0,0-.592,2.367l1.181-.021a5.843,5.843,0,0,1,1.9-2.354,9.686,9.686,0,0,0-.688,1.537,10.958,10.958,0,0,1,2.024-3.029,25.067,25.067,0,0,1,6.287-4.362c1.414-.782,2.857-1.5,4.3-2.22,1.167-.584,2.274-1.466,3.631-1.515a6.146,6.146,0,0,1,3.512,1.37c.507.352.994.736,1.473,1.127s.979.779,1.464,1.175a9.159,9.159,0,0,1,2.5,2.746,10.35,10.35,0,0,1,.647,1.652c.054.117.1.235.152.355a11.989,11.989,0,0,1,.427,1.364l.026.1c-.014-.19-.026-.3-.026-.3a4.783,4.783,0,0,1,.469,1.188,12.389,12.389,0,0,1,1.125.693l.652-.009a3.433,3.433,0,0,1-.34-1.3,3.047,3.047,0,0,0,1.986,1.28h.057a3.827,3.827,0,0,0-1.664-1.867,2.021,2.021,0,0,0-1.825-.012c.111-.429,1.595-1.411,3.247.255a7.194,7.194,0,0,0-1.474-2.077,6.451,6.451,0,0,1,2.24,2.682,10.394,10.394,0,0,0-1.361-2.872,10.445,10.445,0,0,1,2.891,3.212,11.3,11.3,0,0,1-1.146-3.921,22.5,22.5,0,0,0,1.743,3.409,9.976,9.976,0,0,0-1.83-4.218c.991.781,2.3,3.411,2.761,4.79,1.211-1.534-.469-4.38-.543-4.5a13.752,13.752,0,0,1,3.136,5.038l.183,0c.087-1.964-1.581-4.1-1.628-4.164a7.087,7.087,0,0,1,3.182,4.144l.256,0a6.932,6.932,0,0,0-.976-4.478,17.079,17.079,0,0,1,2.281,4.151,16.416,16.416,0,0,1,.067-6.141c.62,4.1,2.022,5.166,2.022,5.166.732-1.379.149-4.988.149-4.988a25.442,25.442,0,0,1,1.648,5.875q.149.034.3.079a9.373,9.373,0,0,1,3.085-5.142c-.706,2.033-1.372,4.667-1.551,5.393h.068a7.031,7.031,0,0,1,4.311-2.936,6.818,6.818,0,0,0-2.514,2.915l4.04-.044c.807-.416,1.621-.82,2.435-1.226,1.167-.584,2.274-1.464,3.631-1.515a4.5,4.5,0,0,1,2.141.541,6.385,6.385,0,0,0-1.7-1.567,6.982,6.982,0,0,1,4.425,3.127c-.023-.1-.784-3.239-1.6-5.583a9.561,9.561,0,0,1,3.237,5.866s.853-5.082,1.794-6.677c0,0-.583,3.609.148,4.988,0,0,1.4-1.063,2.022-5.166a16.451,16.451,0,0,1,.066,6.141,17.086,17.086,0,0,1,2.281-4.151,7.906,7.906,0,0,0-1.071,3.323c.169.044.412.114.712.217a7.311,7.311,0,0,1,1.711-2.434,20.4,20.4,0,0,0-7.383-5.42,18.362,18.362,0,0,1,9.023,5.092,9.808,9.808,0,0,1,.785-.94,16.783,16.783,0,0,0-1.448-2.967,13.238,13.238,0,0,1,3.235,3.226,4.5,4.5,0,0,1,.807-.916,5.4,5.4,0,0,0-.7,1.075q.154.225.3.465c.108-.241.212-.486.307-.73a7.585,7.585,0,0,1-.146,1c.032.054.063.109.094.164.064-.411.145-.823.248-1.225,1.1-4.338-1.279-11.335-1.338-11.513a23.324,23.324,0,0,1,3.779,10.343c.078-.115.156-.232.24-.345,2.905-3.939,4.247-10.3,4.247-10.3.973,4.068-1.7,7.657-2.729,14.587l0,.013-.005,0q-.041.278-.079.563a19.215,19.215,0,0,1,12.642-10.01,19.121,19.121,0,0,0-10.874,11.73h.042a4.463,4.463,0,0,0,.41-.73,2.846,2.846,0,0,1,.006.675l.037-.061a8.21,8.21,0,0,1,1-1.522l-.015.05a18.559,18.559,0,0,1,1.23-1.49c.006-.052.013-.1.019-.156,0,0,.011.037.026.108a14.85,14.85,0,0,1,4.541-3.462,17.829,17.829,0,0,0-4.438,5.737c0,.031,0,.063-.008.094a16.912,16.912,0,0,1,1.573-2.639,12.294,12.294,0,0,0-.772,3.386h.193a9.507,9.507,0,0,1,1.857-3.576,9.926,9.926,0,0,0-.756,3.573h.363a14.553,14.553,0,0,0,.931-3.254,8.732,8.732,0,0,1,.1,2.532l.7-1.915a12.72,12.72,0,0,0,.183,1.773c.148-.057.288-.108.417-.152a4.393,4.393,0,0,0,.585-2.521,7.517,7.517,0,0,1,.968,3.529h.014a10.3,10.3,0,0,0-.293-3.34,9.938,9.938,0,0,1,1.276,3.339h.285a13.117,13.117,0,0,0-.324-2.971,16.928,16.928,0,0,1,1.192,2.832,7.373,7.373,0,0,1,.464-2.436,12.01,12.01,0,0,0,.189,2.574h.9c-.033-.478-.088-.82-.088-.82a8.376,8.376,0,0,1,.445.82h2.074a7.411,7.411,0,0,0-.568-.539c.261.145.508.3.747.462.07-.559.08-.97.08-.97a4.843,4.843,0,0,1,.276,1.048h1.521a1.544,1.544,0,0,1,.014-.22q.057.115.12.221h1.093a2.763,2.763,0,0,0-.756-.751,2.021,2.021,0,0,0-1.806-.267c.169-.41,1.775-1.176,3.18.7a7.2,7.2,0,0,0-1.17-2.261,6.047,6.047,0,0,1,1.7,2.576h.076a10.359,10.359,0,0,0-.882-2.643,8.483,8.483,0,0,1,1.971,2.646h.179a10.7,10.7,0,0,1-.324-3.1,21.081,21.081,0,0,0,1.034,3.105h.161a9.4,9.4,0,0,0-1.168-3.918,11.434,11.434,0,0,1,1.775,3.92l.9,0a6.942,6.942,0,0,0-.52-3.332,11.45,11.45,0,0,1,1.8,3.336l.656,0a9.7,9.7,0,0,0-.9-2.24,5.783,5.783,0,0,1,1.845,2.244l1.22.006a8.49,8.49,0,0,0-.579-2.24,9.075,9.075,0,0,1,1.039,2.243l.722,0a14.806,14.806,0,0,1,.841-3.892,13.256,13.256,0,0,0,.533,3.9l1.309.008a18.052,18.052,0,0,0,.281-3.428,14.3,14.3,0,0,1,.633,3.435l2.049.015a8.082,8.082,0,0,1,2.188-1.946c-.316.617-.638,1.3-.937,1.956l.631.006a4.389,4.389,0,0,0-.458-.318,6.288,6.288,0,0,1,1.051.323l2.642.025c-.256-.91-.558-1.915-.866-2.8a8.486,8.486,0,0,1,2.222,2.819l1.625.019a15.617,15.617,0,0,1,1.183-3.647,17.338,17.338,0,0,0-.18,3.659l1.247.016a13.087,13.087,0,0,0,1.1-3.855,14.724,14.724,0,0,1,.3,3.874l.8.011a8.51,8.51,0,0,1,1.248-1.9,8.5,8.5,0,0,0-.82,1.9l1.419.021a5.568,5.568,0,0,1,1.864-1.585,9.863,9.863,0,0,0-.982,1.6l.744.012a10.774,10.774,0,0,1,1.93-2.484,7.869,7.869,0,0,0-.933,2.5l1.239.022a9.428,9.428,0,0,1,1.912-2.808,8.3,8.3,0,0,0-1.429,2.817l.4.008a18.733,18.733,0,0,0,.942-2.015,9.61,9.61,0,0,1-.406,2.025l.628.012a6.4,6.4,0,0,1,1.523-1.331,9.358,9.358,0,0,0-.771,1.346l.366.007a4.845,4.845,0,0,1,1.283-1.163,5.652,5.652,0,0,0-.947,1.17l.949.02a1.938,1.938,0,0,1,.945.021c1.762.04,3.494.083,5.179.129q.034-.229.062-.473a3.9,3.9,0,0,1,.092.477l1.145.032q.211-.321.458-.671s-.1.263-.235.677l.867.026c.188-.288.4-.587.645-.894,0,0-.154.358-.324.9l.757.023c.042-.2.078-.407.1-.608,0,0,.045.254.089.615l.7.022.007-.02s0,.007,0,.02l1.152.038a3.8,3.8,0,0,0,.032-.958,5.6,5.6,0,0,1,.46.974l.4.014c-.084-.485-.17-.8-.17-.8q.245.418.434.809l.9.032c-.055-.294-.1-.473-.1-.473q.127.246.241.478l1.362.051c.032-.088.052-.134.052-.134l0,.136c.831.032,1.655.065,2.459.1a13.909,13.909,0,0,0-1.686-2.629,10.336,10.336,0,0,1,2.548,2.667l1.217.055a16.618,16.618,0,0,0-6.189-7.862s4.536,1.11,7.717,7.935l.491.024a3.514,3.514,0,0,0-.3-.422,4.023,4.023,0,0,1,.442.416c-.78-5.98-2.29-9.337-1.679-13.1,0,0,.908,6.363,2.878,10.3.058.115.111.23.164.346a30.955,30.955,0,0,1,2.562-10.343c-.041.178-1.655,7.175-.907,11.511.051.3.094.6.131.9.03.064.059.128.088.194a12.389,12.389,0,0,1,2.594-4.151,22,22,0,0,0-1.114,3.509c.166.226.321.461.466.7,2.914-4.494,6.2-5.366,6.316-5.394a15.872,15.872,0,0,0-5.167,5.708q.13.108.251.222c.731.05,1.452.1,2.143.156-.117-.364-.216-.592-.224-.61a4.427,4.427,0,0,1,.376.622q.813.063,1.588.129a12.846,12.846,0,0,1,.637-2.4,16.361,16.361,0,0,0,.2,2.469c.631.056,1.245.115,1.833.174a20.233,20.233,0,0,0,.094-2.163,9.935,9.935,0,0,1,.494,2.223q1.608.168,2.988.353a7.035,7.035,0,0,1,1.387-1.073c-.194.378-.39.779-.581,1.185.222.032.44.065.652.1,8.154,1.267,14.589,8.2,20.35,13.506a156.007,156.007,0,0,1,17.861,19.563l14.883,12.757s14.7,2.62,21.383,4.888q1.133.385,2.214.841l3.16-5.588.036-.065.216-.4c.159-.3.334-.6.494-.9h0c.7-1.258,1.389-2.49,2.088-3.674l.065-.116h0c.228-.375.442-.75.671-1.111h0c.053-.107.12-.2.174-.294a2.757,2.757,0,0,1,.4-.107.39.39,0,0,0,.107-.028l.054-.011a12.142,12.142,0,0,1,1.344-.215h.008c.174-.028.348-.054.549-.068l.132-.011q.545-.045,1.145-.07c2.4-.107,5.4,0,8.412.175,2.159.122,4.328.277,6.3.408,2.434.161,4.563.285,5.992.266.358-.005.672-.02.936-.045h.025c.1-.012.2-.025.295-.039l.227-.039h0a2.122,2.122,0,0,0-.414-.3.043.043,0,0,0-.028-.013l-.107-.056-.016-.005-.023-.005a19.017,19.017,0,0,1-3-1.58l-.006-.007-.007-.006c-.107-1.059-.175-2.4-.175-2.4h0l.067-.038c.223-.127.963-.551,1.848-1.054v-.006l.449-.25.872-.495.031-.018c.938-.523,1.848-1.018,2.331-1.273a9.59,9.59,0,0,1-.669-2.665v-.013a5.368,5.368,0,0,1,.08-1.46c.028-.093.041-.174.068-.268a9.776,9.776,0,0,1,1.553-2.973h0a12.326,12.326,0,0,1,1.768-1.98h0a8.1,8.1,0,0,1,2.251-1.526,2.271,2.271,0,0,1,.243-.071c.227-.059.589-.139,1.072-.239.381-.08.838-.174,1.363-.28,2.033-.394,5.086-.95,8.721-1.589l1.6-.285v0h0c1.553-.271,3.193-.553,4.89-.843,8.224-1.405,17.782-2.968,25.24-4.074h0c4.606-.682,8.411-1.19,10.606-1.379,1.512-.132,3.361-.28,5.443-.433l.236-27.39-7.2.969-1.027-1.227-.011-.361.323-.487.7-1.053.177-.017h.021l.08-.009.1-.01,2.1-.211.064-.007.08-.007.21-.022.818-.083.072-.007,2.268-.229.34-1.816-9.489,2.9-1.621-.927-.087-.349.418-.7.647-1.085.045-.011.077-.022.078-.022,3.335-.933.149-.041.976-.274.29-.08,3.353-.937.165-.045-.31-1.446.3-.268,1.713-.5-12.883-.4-1.448-1.636.036-.422.436-.371.063-.054,0,0,1.352-1.15,13.41.736.024-2.769,2.691-.172.421.868h0l0,.006h0l-.024,2.239.133.007-.1,1.926.1-1.926.336.2-.107,1.631,9.712-2.8.213.116.014.007.087.048.506.274.8.437.043.023.119.064.211.115-1.395,1.877,1.395-1.877.091.391-1.167,1.875-10.849,2.859.323,1.208-.546.168,0,.452,2.4.077,9.122.292.141.169.391.471.5.6.01.013.258.311-1.857,1.289,1.857-1.289-.062.379-1.666,1.354-2.824-.159.192.181.524.494.021.019h0l.23.217-.663,1.693.663-1.693.129.42-.508,1.732-8.942,1.3-.214,18.835,0,.382-.062,5.389v.061c11.5-.812,27.721-1.767,35.414-2.112a25.244,25.244,0,0,1,5.52.372,23.312,23.312,0,0,1,2.667.635,9.471,9.471,0,0,1,1.133.375l-.08,1.192-.054.7-.24,3.67-.334,4.781c-2.826.7-36.533,9.8-42.1,13.914a12.518,12.518,0,0,0-1.406,1.353,2.215,2.215,0,0,1-.187.2c-1.554,1.66-3.925,4.433-6.616,7.686-.174.2-.334.4-.5.589-3.562,4.326-7.62,9.416-11.1,13.929l-.441.562c-2.317,3.014-4.353,5.759-5.786,7.795-1.7,2.438-3.428,4.125-4.619,6.563a6.836,6.836,0,0,0-.321.71,2.235,2.235,0,0,0-.107.24,61.545,61.545,0,0,0-2.859,10.277c1.414-.149,2.913-.355,4.437-.578v-2.4l5.544-4.567.375.039.6.054,14.931,1.5,8.557.857,10.117,9.3.4.364h0l3.7,3.4c6.017,2.457,8.3,2.427,16.069,6.49,5.86,3.066,18.287,14.034,18.287,14.034l19.049-9.962a5.447,5.447,0,0,1-.686-1.076s0,0,0,0-.01-.024-.016-.036-.007-.016-.011-.025a.141.141,0,0,1-.007-.016c-.007-.014-.013-.028-.019-.041-.072-.159-.139-.323-.2-.5a39.738,39.738,0,0,1-1.391-6.945,54.776,54.776,0,0,1-.731-7.243,26.854,26.854,0,0,1,1.863-10.754,26.439,26.439,0,0,1,1.315-2.8,101.183,101.183,0,0,1,8-12.127,133.224,133.224,0,0,1,9.048-10.864c1.619-1.745,3.241-3.5,4.951-5.155a8.578,8.578,0,0,1,5.5-2.772,49.76,49.76,0,0,1,6.532.267c2,.139,4,.32,5.98.582a45.053,45.053,0,0,1,11.556,2.9,27.494,27.494,0,0,1,4.991,2.7,15.888,15.888,0,0,1,3.618,3.557,37.306,37.306,0,0,1,13.8-8.412q1.31-.465,2.639-.847c2.28-1.17,4.635-2.2,6.959-3.278q1.091-.5,2.183-1.005,3.274-1.508,6.558-2.994,8.755-3.963,17.57-7.8c2.548-1.108,5.085-2.252,7.665-3.282l.075-.031.219-.087.01,0c.022-.009.046-.017.068-.027a17.464,17.464,0,0,1,6.15-1.379h.061c.259,0,.52.007.781.026a22.945,22.945,0,0,1,7.12,2.206c2.012.846,4.012,1.718,5.983,2.65,7.665,3.633,15.329,8.513,19.454,16.187a28.04,28.04,0,0,1,2.041,4.876,45.758,45.758,0,0,1,1.779,13.767c0,3.632-.249,7.266-.471,10.755q-.042.647-.085,1.295c-.278,3.966-.676,7.924-1.257,11.85q-.075.5-.153,1.008.316.786.618,1.577c.639,1.684,1.134,3.418,1.715,5.121-.058-.34-.105-.681-.143-1.025-.037-.329-.06-.659-.071-.989l-.013-.041a22.024,22.024,0,0,1-.59-2.983c-.062-.479-.116-.958-.163-1.438q-.469-.251-.942-.494l-.32-.159a8.706,8.706,0,0,1,1.21.093q-.038-.43-.072-.859c.119.3.243.608.378.907.321.054.64.121.956.192q.207.047.414.1a48.74,48.74,0,0,1-.551-8.736,50.912,50.912,0,0,1,.836-7.539c0,.02,0,.039,0,.058-.091,1.9-.087,3.8-.029,5.7s.181,3.777.346,5.659c.151,1.716.381,3.427.521,5.143.417.114.832.231,1.247.348l.174.049a22.637,22.637,0,0,1,.634-2.614,29.618,29.618,0,0,1,3.293-7.034c.616-.982,1.279-1.934,1.977-2.859-.351.787-.7,1.573-1.022,2.371a26.847,26.847,0,0,0-1.1,3.383,47.156,47.156,0,0,0-1.16,6.936q-.037.36-.068.719.434.186.858.393a15.133,15.133,0,0,1,.892-1.366,14.767,14.767,0,0,1,2.151-2.356,27.782,27.782,0,0,1,2.984-2.354,10.037,10.037,0,0,1,3.693-1.627,1,1,0,0,1-.152.217,3.654,3.654,0,0,1-.514.465c-.384.3-.794.556-1.187.84a13.541,13.541,0,0,0-1.5,1.341c-.574.562-1.121,1.15-1.644,1.757a31.4,31.4,0,0,0-2.961,4.073c.3.2.6.405.89.621a34.6,34.6,0,0,1,4.235-3.043c.39-.249.756-.53,1.145-.778l.082-.052a16.777,16.777,0,0,1-.254-3.712,2.757,2.757,0,0,1,.216.5,10.092,10.092,0,0,1,.272,1.024,8.9,8.9,0,0,0,.253.941c.158.44.346.87.529,1.3.378.9.706,1.822,1.044,2.739l.172.467c.622-.186,1.249-.358,1.877-.533a10.658,10.658,0,0,1,1.545-.336,1.973,1.973,0,0,1,1.141.094,2.907,2.907,0,0,1-.678.494c-.345.2-.707.359-1.067.526A13.426,13.426,0,0,0-4418.9,2259l-.014.01.258.7c.676,1.844,1.335,3.695,2.064,5.518l.073.182a24.831,24.831,0,0,1,2.536.339c-.029-.353-.057-.705-.08-1.058a39.748,39.748,0,0,1,.075-5.8c.105-1.3.242-2.615.429-3.917q-.552-.389-1.111-.766-.823-.554-1.67-1.073,1.445.662,2.842,1.427.108-.711.239-1.416a20.253,20.253,0,0,1,.793-3.014c.158-.452.319-.905.488-1.353a3.7,3.7,0,0,1,.539-1.039,2.137,2.137,0,0,1,0,.953c-.065.436-.107.872-.143,1.311q-.122,1.412-.191,2.827-.064,1.336-.07,2.671l.084.05a40.873,40.873,0,0,1,4.168,2.779c.7.543,1.374,1.117,2.033,1.708.607-.966,1.261-1.9,1.948-2.814-.352.787-.7,1.573-1.023,2.371q-.19.475-.362.955.6.555,1.192,1.123c1.167,1.115,2.047,2.592,3.415,3.486.1-.07.2-.14.306-.208l.029-.019a11.961,11.961,0,0,0-1.011-2.184c.065.087.132.171.2.258.409.554.789,1.126,1.149,1.71q.259-.163.524-.314c-.447-1.14-.872-2.29-1.282-3.444.566.976,1.159,1.939,1.68,2.94.094.181.412.055.336-.142a47.969,47.969,0,0,1-1.718-5.773c-.189-.785-.356-1.576-.553-2.361q.177.48.354.959c.678,1.844,1.335,3.7,2.064,5.518q.317.793.644,1.583a7.775,7.775,0,0,1,1.283-.358.964.964,0,0,1-.153.217,3.69,3.69,0,0,1-.514.465c-.121.094-.245.184-.37.273.321.779.641,1.559.949,2.343h1.122c-.068-.633-.123-1.267-.174-1.9.123.316.253.63.394.94q.221.49.478.962h.977a50.891,50.891,0,0,1-.651-9.44q.047-1.1.131-2.2l-.135-.08a29.024,29.024,0,0,0-2.745-1.417c-.083-.036-.019-.188.055-.2.219-.019.436-.029.656-.026a11.756,11.756,0,0,1,2.3.295c.137-1.313.324-2.622.575-3.917,0,.02,0,.039,0,.058-.064,1.324-.081,2.648-.066,3.973l.165.039c.923.222,1.848.449,2.756.726a19.759,19.759,0,0,1,3.9,1.633q.672-1.008,1.4-1.975c-.331.74-.661,1.479-.966,2.228q.4.239.788.5a25.32,25.32,0,0,1,2.417,1.913q1.245,1.075,2.413,2.235l.112.111a8.713,8.713,0,0,1,2.455-.886q-.357-1.067-.7-2.137a22,22,0,0,1-1.369-8.542c.01-.113.145-.275.26-.171a2.027,2.027,0,0,1,.5.894c.126.376.213.765.3,1.151a18.518,18.518,0,0,0,.97,2.624c.73,1.823,1.379,3.685,2.061,5.527.5,1.344.987,2.69,1.5,4.025a15.776,15.776,0,0,1,2.2-1.841c.005-1.412.085-2.823.22-4.228.093-.982.211-1.962.346-2.938.133-.96.274-1.921.488-2.866a22.2,22.2,0,0,1,.83-2.716,5.478,5.478,0,0,1,1.134-2.223.138.138,0,0,1,.223.029,1.95,1.95,0,0,1,.11,1.27c-.074.476-.125.953-.168,1.434q-.148,1.594-.229,3.193c-.119,2.4-.092,4.81.029,7.212q.469-.263.937-.521.75-.415,1.511-.809l.123-.215,2.032-3.562h0l2.138-3.747.859-.991.177.088,5.585,2.746h0a22.051,22.051,0,0,1,2.117,1.832c.665.672,1.221,1.38,1.182,1.848,0,.032,0,.074,0,.126,0,.229.024.65.063,1.215.033.474.078,1.052.133,1.7.029.337.061.694.094,1.067,0,.05.009.1.014.152a6.787,6.787,0,0,1,.581.756l.171.1a22.02,22.02,0,0,1,2.284,1.488c.477-.3.964-.59,1.454-.87l-.1-.253c-.261-.669-.532-1.35-.808-2.039-.34-.857-.685-1.725-1.04-2.608-.181-.458-.365-.921-.558-1.39-.517-1.292-1.043-2.6-1.576-3.929a13.634,13.634,0,0,0-1.948-1.417c.507.1,1.014.219,1.518.348-.721-1.79-1.45-3.6-2.178-5.4-.281-.7-.566-1.4-.847-2.1-.558-1.37-1.111-2.733-1.656-4.076h0q-.441-1.086-.873-2.155-.51-1.265-1.01-2.494c-.143-.349-.285-.7-.424-1.044-.7-1.731-1.379-3.4-2.016-4.978-.778-1.938-1.508-3.742-2.158-5.379-1.268-3.169-2.254-5.688-2.806-7.22a1.072,1.072,0,0,1-.061-.368,2.529,2.529,0,0,1,.639-1.428,4.749,4.749,0,0,1,.507-.556s-.177-.556-.454-1.444v-.006c-.474-1.528-1.232-4.042-1.878-6.4v-.006a30.041,30.041,0,0,1-1.151-5.423.981.981,0,0,1,.039-.32.23.23,0,0,1,.093-.119,1.33,1.33,0,0,1,.517-.211h0c.144-.035.312-.064.5-.093l.036-.006a24.815,24.815,0,0,1,3.128-.158h.006c.186,0,.376,0,.566,0,.508.006,1.037.013,1.57.025l.229.006c.049,0,.1,0,.153,0,.281.01.562.02.843.025l.423.016c.281.01.568.025.849.033a.557.557,0,0,1,.1.006c.33.014.66.029.98.049,2.539.129,4.836.29,5.861.374h.029l.529.045h.009l1.232,2.529.513,1.064,2.346,4.822,2.278,4.682,1.157,2.381,3.376,6.939h0v0l4.309,8.858.961,1.976.033.074.745,1.479h-.025l1.479,3.037.041-.059.019.039c.192-.074.833-.3,1.73-.581.482-.148,1.04-.305,1.641-.458.107-.029.216-.055.327-.081,2.836-.688,6.513-1.143,8.137.479a13.834,13.834,0,0,1,2.06,3.017,88.61,88.61,0,0,1,4.594,10.726.04.04,0,0,1,.014,0,53.486,53.486,0,0,1,5.655,1.317,7.676,7.676,0,0,1,3.123-.894c2.2-.08,4.326,1.162,6.077,2.372.533.37,1.052.758,1.563,1.158.007-.085.015-.173.021-.261a39.1,39.1,0,0,1,.67-5.175c.054-.2.108-.316.168-.34a1.457,1.457,0,0,1,.74.039c.123.028.256.062.394.1a7.786,7.786,0,0,1,1.8.788h0l.016.01.007,0a.127.127,0,0,0,.015.01l.006,0,.014.01.007,0,.03.02,0,0a.05.05,0,0,1,.012.007l.009.007a.051.051,0,0,1,.012.007l.01.006.01.009.01.007.01.007.011.009.016.01.01.009a.029.029,0,0,1,.008.007.05.05,0,0,1,.012.007l.009.007.009.007.01.007a.037.037,0,0,1,.008.007l.022.017s0,0,0,0l.01.009.008.006.01.009.006,0a.065.065,0,0,1,.01.01l0,0,.013.01s0,0,0,0l.039.038s0,0,0,0l.012.01s0,0,0,0l.012.012.048.049s0,0,0,0a.063.063,0,0,1,.01.01s0,0,0,0l.009.011a0,0,0,0,1,0,0c.009.01.019.022.027.033l0,0,.006.009,0,.006s0,0,.006.007l0,.007,0,.007.009.013c.181.281,1.764,2.769,3.595,5.644.029.046.059.091.088.138,1.168,1.832,2.43,3.81,3.491,5.476q-.446-1.911-1.058-3.778c-.665-2.029-1.48-4-2.338-5.954-.844-1.924-1.747-3.821-2.753-5.666-.5-.924-1.03-1.835-1.584-2.73a28.6,28.6,0,0,0-1.77-2.532c-.054-.07.074-.175.142-.146a6.543,6.543,0,0,1,.591.282,13.575,13.575,0,0,1,2.421,1.777c.713.625,1.427,1.259,2.1,1.925a18.95,18.95,0,0,1,3.43,4.5,25.94,25.94,0,0,1,1.249,2.818q.6,1.531,1.1,3.1a32.832,32.832,0,0,1,1.421,6.509q.058.564.092,1.129l.16.205,0-.034c.3-3.189.781-6.364,1.33-9.518a22,22,0,0,1,2.765-8.2c.061-.1.255-.175.308-.031a2.042,2.042,0,0,1,.031,1.024c-.064.391-.168.775-.268,1.16a18.745,18.745,0,0,0-.364,2.774c-.2,1.955-.494,3.9-.747,5.851s-.52,3.887-.71,5.838c-.073.752-.141,1.505-.212,2.258l.133-.062,1.323-.624c.318-.76.633-1.522.986-2.267a43.371,43.371,0,0,1,2.907-5.123c.54-.827,1.1-1.638,1.675-2.44s1.134-1.571,1.764-2.31a22.082,22.082,0,0,1,2-2.017,5.459,5.459,0,0,1,2.039-1.441.138.138,0,0,1,.184.129,1.944,1.944,0,0,1-.5,1.176c-.287.388-.553.786-.815,1.192q-.873,1.343-1.688,2.72a82.534,82.534,0,0,0-5.029,10.274c-.258.619-.506,1.241-.754,1.863l.509.357.243.172.491.343h0l.107.075.048.033h.354a27.682,27.682,0,0,1,3.016-2.546,36.515,36.515,0,0,1,5.51-3.293,18.117,18.117,0,0,0-1.554-1.9,13.991,13.991,0,0,0-2.988-2.417,16.985,16.985,0,0,1,7.815,3.344,15.647,15.647,0,0,1,4.314,6.813h1.454c-.042-.4-.09-.791-.148-1.186a42.187,42.187,0,0,0-1.451-6.347,55.125,55.125,0,0,0-2.284-6c-.84-1.9-1.732-3.789-2.718-5.623a52.94,52.94,0,0,0-3.321-5.337c-.068-.1-.139-.194-.208-.29a11.279,11.279,0,0,1,2.034,1.445c.729.623,1.422,1.286,2.12,1.944a19.693,19.693,0,0,1,3.531,4.359,20.733,20.733,0,0,1,1.279,2.694q.608,1.512,1.12,3.059c.409,1.243.773,2.506,1.07,3.783.66-.174,1.327-.329,2-.451.2-1.3.418-2.592.643-3.884a39.531,39.531,0,0,1,.936-4.274q.081-.28.17-.558-1.266-.939-2.57-1.822a53.06,53.06,0,0,0-5.422-3.179c-.106-.053-.213-.106-.319-.158a11.217,11.217,0,0,1,2.471.332c.934.213,1.858.478,2.781.736a20.626,20.626,0,0,1,4.055,1.584q.25-.507.538-1a2.825,2.825,0,0,1-.04.542c-.034.219-.083.434-.136.649q.374.208.737.436a20.8,20.8,0,0,1,2.386,1.789q1.24,1.054,2.414,2.187.508.492,1,1l.106-.135a20.448,20.448,0,0,1,2.106-2.3l.05-.046-.238-.734a40.039,40.039,0,0,1-1.162-4.218,17.571,17.571,0,0,1-.381-4.387,2.767,2.767,0,0,1,.216.5,10.07,10.07,0,0,1,.272,1.024,8.9,8.9,0,0,0,.253.941c.158.442.346.87.529,1.3.378.9.706,1.822,1.044,2.737q.325.88.649,1.762a3.131,3.131,0,0,1,.789-.519,2.137,2.137,0,0,1-.445.842q-.075.1-.149.207l.178.484c.676,1.842,1.335,3.693,2.064,5.517.72,1.8,1.486,3.583,2.175,5.4.639,1.683,1.134,3.417,1.715,5.12-.057-.34-.106-.681-.142-1.024s-.06-.66-.072-.991a.327.327,0,0,1-.012-.041,21.985,21.985,0,0,1-.591-2.984c-.133-1.005-.22-2.016-.3-3.027s-.177-1.993-.243-2.99a39.725,39.725,0,0,1,.075-5.8,56.208,56.208,0,0,1,.729-5.744,20.206,20.206,0,0,1,.793-3.014c.158-.452.319-.905.488-1.354a3.7,3.7,0,0,1,.539-1.038,2.136,2.136,0,0,1,0,.953c-.065.436-.107.872-.143,1.311q-.122,1.412-.191,2.827c-.091,1.9-.087,3.8-.03,5.707s.181,3.774.348,5.657c.158,1.8.4,3.583.54,5.379a16.54,16.54,0,0,0,.911,5.4c.023.052.057.061.09.046.033-.138.066-.275.1-.413a21.263,21.263,0,0,1,.933-7.483,29.639,29.639,0,0,1,3.295-7.036c.615-.982,1.279-1.933,1.977-2.859-.352.786-.7,1.573-1.022,2.371a27.017,27.017,0,0,0-1.1,3.383,47.064,47.064,0,0,0-1.16,6.936c-.084.834-.15,1.67-.21,2.506a9.887,9.887,0,0,0-.524,1.7c.091-.253.19-.5.3-.749.155-.339.332-.669.5-1,.059-.113.123-.224.187-.333a14.555,14.555,0,0,1,1.422-2.375,14.727,14.727,0,0,1,1.04-1.268q.043-.406.086-.812.193-1.823.384-3.646a28.632,28.632,0,0,1,.435-3.428,4.9,4.9,0,0,1,1.034-2.146,11.224,11.224,0,0,1,2.087-1.706q2.49-1.755,5.079-3.356c3.467-2.138,7.017-4.154,10.658-5.98a3.455,3.455,0,0,1,2.47-.468,5.782,5.782,0,0,1,1.306.569,10.324,10.324,0,0,1,1.4-1.812,21.777,21.777,0,0,1,2.277-2.213,9.574,9.574,0,0,1,2.355-1.608,3.789,3.789,0,0,1,2.746.014q.417.141.83.3a87.692,87.692,0,0,1,6.3-14.16,18.417,18.417,0,0,1,2.814-1.259.443.443,0,0,0,.145-.087,20.623,20.623,0,0,1,2.047-.369,27.5,27.5,0,0,1,15.1,2.8c.081-.346.162-.692.246-1.039a78.376,78.376,0,0,1,2.914-9.573c1.22-3.182,2.562-6.318,3.932-9.439q4.278-9.746,8.634-19.461,2.157-4.834,4.317-9.665c.723-1.621,1.435-3.244,2.171-4.859a8.216,8.216,0,0,1,2.18-3.162,15.389,15.389,0,0,1,3.932-1.91q2.509-1.014,5.023-2.032l9.81-3.969,19.856-8.031,9.81-3.968a78.094,78.094,0,0,1,9.594-3.493,42.55,42.55,0,0,1,8.226-1.115c.978-.171,1.957-.329,2.933-.481q7.026-1.091,14.072-2.016,7.122-.934,14.262-1.715,3.522-.387,7.046-.734c2.2-.217,4.548-.636,6.736-.145a19.324,19.324,0,0,1,5.548,2.772c1.786,1.091,3.549,2.223,5.268,3.415,3.457,2.394,6.787,4.971,9.992,7.692a120.406,120.406,0,0,1,9.248,8.739,25.121,25.121,0,0,1,2.035,2.245,3.643,3.643,0,0,1,.763,2.526c-.074,1.156-.319,2.316-.488,3.46q-.27,1.808-.542,3.612-.7,4.643-1.4,9.284c.009.013.026.02.029.045.171,2.18.153,4.381.184,6.567.053,3.84.081,7.679.1,11.517.019,3.414.055,6.832-.059,10.243q.369,1.384.71,2.775c.067-.032.132-.064.2-.094,1.954-.925,3.931-1.812,5.948-2.591q1.486-.573,3-1.088a11.454,11.454,0,0,1,3.12-.823c1.91-.085,3.237,1.316,4.232,2.781a19.732,19.732,0,0,1,2.4,5.308c.623,2.01,1.131,4.061,1.651,6.1.558,2.188,1.07,4.391,1.463,6.616.594,3.372,1.108,6.987-.051,10.248q.4.9.774,1.814a65.256,65.256,0,0,1,7.012-1.258q1.123-.132,2.249-.2.771-.05,1.542-.075c.989-.035,1.98-.045,2.969-.039h.093q.873.007,1.748.026c.42.009.84.017,1.26.029,3.307.09,6.613.172,9.911.421a21.565,21.565,0,0,1,8.584,1.974,2.406,2.406,0,0,1,1.259,1.224,2.214,2.214,0,0,1,.084.344c.014,0,.026-.011.039-.014a26.748,26.748,0,0,1,3.169-.36l1-4.249.342-1.463,5.873-2.837,1.751-1.831.771-.807-.093-.048-.032-.015-.064-.032-.032-.016-.07-.033-.026-.013a19.544,19.544,0,0,0-1.819-.766l-.073-.026-.011,0c-.22-.078-.442-.155-.669-.229-.127-.042-.255-.083-.384-.123l-.03-.009-.041-.012a35.329,35.329,0,0,0-6.742-1.276q-2.437-.244-5.172-.278c-.154,0-.307-.007-.462-.009h-.645l-.511,0q-.63,0-1.267.016l-1.3-.766-1.594-.943-4.425-2.608-2.206-1.3a.016.016,0,0,1-.01,0l-2.383-1.411,1.37-7.394,1.186-6.384s-.009-.025-.028-.072-.042-.113-.077-.2c-.4-1.062-1.879-4.984-2.78-7.428-.145-.394-.275-.749-.382-1.047l-.109-.3-.075-.214a42.308,42.308,0,0,0-2.608-4.882c-.2-.335-.4-.669-.59-.994-1.122-1.878-2.11-3.463-2.149-3.527a0,0,0,0,1,0,0l4.748-8.439.2-.356.4-.714,1.529-2.72.129-.23.461-.818,1.586-2.818.592-1.056.194-.345.442-.783.191-.34.4-.7.143-.255,2.151-.34h0l2.467.659,1.6.427,3.16.843,3,.8.747.2.258.068,1.335.359,2.217.591,5.967,1.592,5.039,1.345,3.844,1.027,1.4,1.4.024.022.737,1.359,1.949,3.58,1.467,2.7,2.943,5.411q1.69,2.116,3.012,4.16l.178.277c.194.305.384.608.568.912.01.017.02.035.031.051s.011.02.017.029q.93,1.538,1.67,3.039a37.072,37.072,0,0,1,2.051,5.007c.033.1.065.2.1.3.007.023.014.046.02.068l.043.138c.036.117.07.232.106.345q-.632.888-1.253,1.783c-.016.02-.03.039-.045.061s-.013.019-.02.029a.213.213,0,0,0-.019.029q-.378.541-.749,1.082c-.03.043-.059.085-.088.129l-.007.009-.3.446c-.255.375-.51.753-.76,1.127-.055.08-.109.161-.164.24q-.278.415-.553.832c-.022.035-.045.068-.068.1l-.262.4-.078.12c-.216.329-.432.659-.645.988q-.762,1.184-1.5,2.368-.371.591-.734,1.188l-.4.646-.188.317,0,0q-.382.637-.759,1.275-.213.365-.426.729c-.145.248-.29.5-.43.747s-.282.5-.424.746c-.152.271-.3.537-.453.805q-.285.517-.566,1.033l-.2.374c-.117.217-.235.436-.35.655l-.191.362c-.162.31-.324.618-.481.926-.061.117-.123.235-.184.352-.073.142-.146.285-.219.429-.035.069-.07.139-.1.208-.052.1-.1.2-.154.3l-.169.339c-.084.171-.168.34-.253.511-.029.061-.06.122-.088.183l-8.444,4.112.471.188,2.485.985.006.007,2.737,4.706.689,1.183,0,.01.627,1.743a15.167,15.167,0,0,1,3.111-.452,12.267,12.267,0,0,1,1.409.03l1-1.6,1.056.27,1.137.287,2.84,2.229c.8.188,1.6.365,2.4.5,3.687.64,7.585.84,11.191,1.939l.03.01c.023.006.046.013.068.021l.048.014.049.016.059.019.035.012c.023.007.046.014.07.023h.009a18.416,18.416,0,0,1,2.548,1.032c3.948-4.271,6.6-8.642,13.259-15.576,7.721-8.04,2.61-11.826,10.278-19.621,5.22-5.305,15.036-3.686,21.49-8.407,9.122-6.675,14.363-18.98,14.363-18.98l30.915-49.153,21.529,13.688,1.252-2.982.76-1.821.531-1.27.139-.312.019-.045h0l.027,0,.157-.023.078-.017a21.172,21.172,0,0,0,3.283-.766h.007c.135-.045.27-.091.4-.139q.166-.06.329-.124c.239-.095.472-.2.7-.3h.013c.324-.13.635-.29.946-.448a14.122,14.122,0,0,0,4.643-3.754q.226-.272.438-.559l0,0q.164-.224.318-.458c.324-.469.621-.973.9-1.485l.028-.046c.083-.153.166-.311.242-.469l.027-.063c.07-.137.137-.268.2-.407q.142-.292.273-.6.224-.524.42-1.074l.033-.095.01-.03q.072-.208.14-.42c.078-.213.144-.43.21-.647l.063-.216c.059-.206.12-.41.162-.614.019-.055.036-.11.052-.165q.034-.134.066-.27h0l5.543,1.731.487.151.254.078,6.468,2.022,2.424.757h0l.691,2.726.24.973.829,3.3.776,3.042a22.276,22.276,0,0,1,8.468-1.665,1.541,1.541,0,0,1-.036-.314c0-2.534,6.093-4.588,13.61-4.588a37.71,37.71,0,0,1,5.575.4c2.923-2.078,9.2-3.517,16.48-3.517a46.268,46.268,0,0,1,10.511,1.125q-.308-1.08-.515-2.186a42.5,42.5,0,0,1-.623-7.75c0-1.236.019-2.471.054-3.7,0-.083,0-.165.007-.248,0-.139.009-.281.015-.421a16.462,16.462,0,0,1,.413-3.411c.642-2.537,2.365-4.553,4.016-6.506q2.841-3.363,5.79-6.635c1.85-2.042,3.783-3.99,5.754-5.911q.276-.884.565-1.763c.513-1.563,1.052-3.117,1.6-4.671a11.2,11.2,0,0,1,2.084-4.316,8.621,8.621,0,0,1,2.213-1.5c.844-.446,1.695-.881,2.546-1.312q2.561-1.3,5.149-2.549c1.661-.805,3.322-1.625,5.007-2.385a7.722,7.722,0,0,1,3.692-.805.173.173,0,0,1,.116.009.025.025,0,0,1,.01,0c1.93-.252,3.886.882,5.425,1.976,2.425,1.725,4.748,3.6,7.111,5.408a8.559,8.559,0,0,1,2.1,1.954,3.334,3.334,0,0,1,.413.882,3.927,3.927,0,0,1,.117.543,26.247,26.247,0,0,1,5.531,1.188,16.88,16.88,0,0,1,5.984,4.549,19.682,19.682,0,0,1,1.935,2.484q.161.251.313.508c2.7-2.208,4.753-3.641,6.165-3.674,10.043-.233,19.246-18.644,32.793-21.863,10.662-2.532,20.922-.992,30.235,2.628,8.341-4.769,17.252-8.86,26.965-8.731,10.955.146,21.276,5.643,29.31,12.786,4.365,3.883,8.445,8.086,12.483,12.3,1.615,1.687,3.228,3.381,4.812,5.1,2.356-3.009,5.208-6,8.913-7.128a7.771,7.771,0,0,1,5.741.387,18.93,18.93,0,0,1,4.739,3.777q5.327,5.227,10.657,10.451c1.755,1.715,3.53,3.414,5.257,5.156a38.168,38.168,0,0,1,4.427,5.142,9.94,9.94,0,0,1,1.419,2.788,10.128,10.128,0,0,1,.358,3.23q-.022.661-.076,1.324c2.27,1.016,4.018,3.089,5.475,5.027,1.877,2.5,3.664,5.076,5.465,7.634q2.778,3.951,5.552,7.911a29.967,29.967,0,0,1,4.406,7.739,28.952,28.952,0,0,1,1.177,6.685c6.473.527,13.39.812,20.8.812,7.731,0,27.31,6.468,27.31,6.468h7.118a18.34,18.34,0,0,1-1.688-3.787,17.7,17.7,0,0,0,3.334,3.787h.468a20.233,20.233,0,0,1-2.219-8.39,19.172,19.172,0,0,0,3.065,5.813l.1.024a39.79,39.79,0,0,1,.212-8.78,41.2,41.2,0,0,0,2.19,8.387,63.578,63.578,0,0,1,1.474-16.795,63.788,63.788,0,0,0,.792,14.087c.157.154.322.323.491.508a63.27,63.27,0,0,1,1.52-12.008,62.792,62.792,0,0,0,1,15.148c.3-3.25,1.146-7.737,3.528-10.621a32.345,32.345,0,0,0-.636,4.909,7.451,7.451,0,0,1,.387-.971s-.395,4.359.372,6.835a36.82,36.82,0,0,0,3.327-9.7,26.56,26.56,0,0,1,.763,6.919,23.538,23.538,0,0,1,7-7.782,31.22,31.22,0,0,0-4.637,9.085c2.048-1.495,5.228-4.09,6.362-6.5a23.8,23.8,0,0,1-2.39,6.228c.153-.205.312-.415.475-.628a16.09,16.09,0,0,1,2.4-3.419c-.028.056-.23.459-.46,1.06a11.07,11.07,0,0,1,3.644-3.027,15.868,15.868,0,0,0-3.53,7.052c.312-.261.639-.555.975-.884a15.469,15.469,0,0,1,2.8-4.887,11.769,11.769,0,0,0-1.679,3.684,19.446,19.446,0,0,0,1.5-2.024q.064-.195.125-.39s0,.069,0,.2a21.973,21.973,0,0,0,1.748-3.4s-1.175,4.38-2.623,8.552a14.337,14.337,0,0,1,3.676-4.443,14.37,14.37,0,0,0-.975,1.985,16.517,16.517,0,0,0,2.079-3.507,18.421,18.421,0,0,1-.5,2.38,6.36,6.36,0,0,1,.792-.656,7.575,7.575,0,0,0-.993,1.323c-.172.535-.363,1.052-.57,1.549a3.626,3.626,0,0,1,2.976-1.119,13.2,13.2,0,0,0,1.316-1.751,18.085,18.085,0,0,1-.72,1.9,1.6,1.6,0,0,1,.956.747,2.87,2.87,0,0,0-1.191-.236c-.31.651-.654,1.284-1.02,1.9a6.258,6.258,0,0,1-.156.818l1.955-.22q.261-.179.534-.354a7.506,7.506,0,0,1,.6-1.9s-.029.643.019,1.522c.388-.226.794-.442,1.214-.64a12.356,12.356,0,0,0-1.189,1.008c.006.076.012.154.019.232l.206-.023,3.351-.378c.2-.346.428-.7.687-1.065,0,0-.094.407-.187,1.008l1.491-.168a19.374,19.374,0,0,0,.447-3.465,11.035,11.035,0,0,1,.461,3.362l.2-.022a27.938,27.938,0,0,1,1.965-3.777,21.53,21.53,0,0,0-.756,3.641l.68-.077a16.49,16.49,0,0,1,2.045-4,15.957,15.957,0,0,0-.429,1.547,6.084,6.084,0,0,1,1.108.5,15.805,15.805,0,0,0,.2-1.6s.23.92.372,1.943c.168.109.346.23.531.366l.41-1.434s.1,1.01.3,2q.089.076.178.156l.8-.091a7.053,7.053,0,0,0,.542-2.68,21.488,21.488,0,0,0-3.3-5.871s2.438,1.524,4.725,5.8a16.842,16.842,0,0,1,1.258,2.391l.269-.03c-1.46-6.438-4.591-11.582-9.339-14.706,0,0,6.914,1.693,10.919,12.752-.828-9.311-3.289-13.992-2.426-19.315,0,0,1.157,8.106,3.667,13.125.072.145.14.293.208.44.453-4.564,1.395-9.433,3.263-13.176-.052.226-2.109,9.139-1.156,14.666.088.513.158,1.036.214,1.561a15.868,15.868,0,0,1,3.37-5.454,29.825,29.825,0,0,0-1.944,7.265c3.929-7.391,9.006-8.736,9.164-8.776a21.911,21.911,0,0,0-8.581,11.952q.405.075.863.156.251-.253.5-.473c0-.1,0-.16,0-.16l.054.116a8.978,8.978,0,0,1,3.12-1.939,8.377,8.377,0,0,0-1.065.955,3.838,3.838,0,0,1,3.653,1.62,11.249,11.249,0,0,0-2.071-3.4,9.976,9.976,0,0,1,3.159,4.329l.02,0a16.3,16.3,0,0,0-1.787-4.533,14.993,14.993,0,0,1,3.858,4.765l.085.009a17.327,17.327,0,0,1-1.146-5.687,35.039,35.039,0,0,0,2.345,5.507c-.805-4.808-2.393-6.777-2.393-6.777,1.343,1.219,2.931,4.906,3.624,7.2l.536.051c1.36-2.379-.639-6.38-.733-6.567a16.543,16.543,0,0,1,2.6,3.8,6.818,6.818,0,0,1,1.368.508A15.506,15.506,0,0,0-3285,2152.5a9.687,9.687,0,0,1,3.71,4.461,8.24,8.24,0,0,1,.861,1.082l.219.015a17.48,17.48,0,0,0-5.376-6.927s2.762.3,5.436,3.738a13.256,13.256,0,0,0-.97-2.627,13.789,13.789,0,0,1,1.8,3.239,10.269,10.269,0,0,0-5.991-8.282c-4.244-2.1-6.265,1.325-6.265,1.325,1.169-5.459,8.552-5.844,13.378,3.03a71.633,71.633,0,0,0-4.935-12.044s3.686,2.926,6.9,11.879a62.81,62.81,0,0,0-.66-11.336,31.3,31.3,0,0,1,2.815,10.949s-.068-7.441,2.32-11.617a28.366,28.366,0,0,0,.833,8.713c1.012-3.89,2.635-7.571,5.22-9.914,0,0-2.808,3.482-4.229,11.976a61.83,61.83,0,0,0,4.144-9.731,31.192,31.192,0,0,1-2.42,11.068c.112-.226,3.382-6.771,7.365-9.456a28.73,28.73,0,0,0-3.2,8.185c1.348-3.192,3.182-6.112,5.657-7.827a19.832,19.832,0,0,0-3.661,6.008c4.233-4.908,9.317-4.022,10.234.268,0,0-1.795-3.017-5.767-1.221a10.35,10.35,0,0,0-4.836,5.507c3.8-5.97,9.038-5.8,10.32-2.045q.175-.276.348-.553s0,.006,0,.007l.042-.068a35.086,35.086,0,0,1,2.381-3.493,9.71,9.71,0,0,1,3.054-2.691,5.1,5.1,0,0,1,3.341-.406c.123.024.246.053.367.085h0l.065.017a8.6,8.6,0,0,1,1.372.514c.051-.081.1-.162.153-.245h0a81.792,81.792,0,0,0,4.477-7.582,29.08,29.08,0,0,1,2.031-3.751,5.886,5.886,0,0,1,2.6-2.339l.014-.006.019-.007.045-.017.094-.033a.087.087,0,0,1,.02-.007l.019-.007.041-.013.031-.011a.126.126,0,0,0,.022-.007.011.011,0,0,0,.007,0,21.948,21.948,0,0,1,3.512-.657c1.521-.24,2.989-.759,4.485-1.118,1.687-.4,3.392-.736,5.111-.975q.673-.093,1.348-.165c-.006-.049-.01-.1-.014-.149a19.983,19.983,0,0,1,.129-2.387s0-.009,0-.013c.007-.161.009-.323,0-.484,0-.052.074-.1.127-.1a.051.051,0,0,1,.057.043,9.381,9.381,0,0,0,.313,1.29,12.689,12.689,0,0,0,.679,1.677c.285-.026.571-.049.857-.074a16.6,16.6,0,0,1,.393-2.717.121.121,0,0,1,.093-.083h0a.079.079,0,0,1,.1.042,7.91,7.91,0,0,1,.323.9c.174.577.3,1.169.459,1.751.107-.009.216-.017.323-.028.025,0,.049,0,.073-.006.016-.13.033-.261.053-.391a27.088,27.088,0,0,1,.817-3.46c.332-1.15.688-2.293.94-3.464.013-.064.162-.107.154-.014a10.138,10.138,0,0,0,.068,1.826c.053.585.116,1.172.139,1.761a15.408,15.408,0,0,1-.048,2,9.638,9.638,0,0,1-.145,1.018c-.039.191-.088.378-.143.563l.059,0,.256-.312c.394-.476.763-.97,1.121-1.474a35.853,35.853,0,0,0,2.161-3.528c.048-.088.225-.1.2.028a15.405,15.405,0,0,1-.549,1.86c-.4,1.094-.876,2.152-1.26,3.25.288-.028.577-.055.865-.084.364-.608.717-1.222,1.052-1.847a22.01,22.01,0,0,0,1.412-3.179,12.583,12.583,0,0,0,.716-3.354c.043-.733.036-1.469.1-2.2.13.374.274.746.391,1.123a8.107,8.107,0,0,1,.214.86c.013.152.027.3.042.456q.071.806.126,1.616c.032.505.065,1.012.048,1.519a11.04,11.04,0,0,1-.465,2.743c-.185.637-.413,1.26-.657,1.878l.1-.115q.606-.676,1.275-1.289a10.116,10.116,0,0,1,1.434-1.133,3.461,3.461,0,0,1,1.457-.588h0l.045,0a.174.174,0,0,0,.029,0,.131.131,0,0,0,.025,0h0a.073.073,0,0,1,.074.077.14.14,0,0,1-.088.111,5.585,5.585,0,0,0-1.344.944,9.622,9.622,0,0,0-1.55,1.9q.936-.108,1.873-.227l.126-.017a6.626,6.626,0,0,1,1.987-.688h0a.139.139,0,0,0,.025,0l.023,0h.013l.039-.006.019,0h.019c.028-.006.055-.009.083-.013h.025c.117,0,.112.126.026.193l-.427.339c1.094-.088,2.188-.135,3.3-.13,1.819.007,3.643.1,5.46.007,3.537-.187,6.943-1.386,10.411-2.023,1.718-.317,3.45-.562,5.191-.72.872-.08,1.747-.135,2.622-.187-.133-.143-.272-.282-.416-.416a5.453,5.453,0,0,0-1.343-.944.147.147,0,0,1-.09-.112.076.076,0,0,1,.075-.078h0l.049,0h0l.048,0s0,0,0,0a3.482,3.482,0,0,1,1.457.588,9.177,9.177,0,0,1,1.169.9q.515-.033,1.033-.07c-.017-.055-.035-.112-.051-.167a11.1,11.1,0,0,1-.463-2.745,15.127,15.127,0,0,1,.048-1.518c.035-.54.078-1.081.126-1.618.013-.152.027-.3.042-.456a7.994,7.994,0,0,1,.214-.86c.117-.376.261-.749.391-1.123.065.729.058,1.466.1,2.2a12.683,12.683,0,0,0,.715,3.354,21.5,21.5,0,0,0,1.183,2.74q.589-.054,1.177-.113c-.1-.255-.2-.51-.291-.768a14.8,14.8,0,0,1-.549-1.86c-.029-.13.146-.115.194-.028.477.872.975,1.732,1.514,2.567q.869-.089,1.737-.191c0-.214,0-.429.013-.642.022-.588.085-1.176.139-1.761a10.112,10.112,0,0,0,.067-1.826c-.007-.091.142-.049.155.014.25,1.172.608,2.314.94,3.465.055.191.109.381.162.572q1.992-.25,3.973-.561c1-.158,2.067-.416,3.147-.6l.012,0,.075-.013a.207.207,0,0,0,.032-.006l.038-.006.064-.01.022,0,.07-.01a.008.008,0,0,1,.006,0l.083-.013a.009.009,0,0,0,.006,0c.029,0,.057-.007.084-.011h0a7.912,7.912,0,0,1,4.251.287l0,0a.29.29,0,0,1,.038.015l.013.006.031.013.014.007.031.013.013.006.043.019a.082.082,0,0,1,.053.077c0,.078-.1.171-.185.136l-.048-.02c.207.238.419.474.616.72a5.364,5.364,0,0,1,.715,1.12,10.985,10.985,0,0,1,.537,1.628c.313,1.12.556,2.256.792,3.395.216,1.037.565,2.041.778,3.079,0,0,0,0,0,0s0,.028.007.041l0,.018c0,.019.007.036.01.053s.011.062.019.093a5.673,5.673,0,0,1,.1,1.415,4.382,4.382,0,0,1-.122.763,6.531,6.531,0,0,1-.23.731,26.34,26.34,0,0,1-1.419,2.775c-.565,1.076-1.107,2.164-1.661,3.244q-1.666,3.239-3.338,6.471c-.036.072-.074.143-.112.214.046.485.093.969.112,1.456a15.635,15.635,0,0,1-.036,1.877h0l.023,0a.043.043,0,0,1,.014,0l.038-.006.02,0a.074.074,0,0,1,.019,0l.081-.012h.024c.119,0,.112.126.028.193s-.193.152-.288.228c-.029.253-.067.5-.117.754-.046.226-.109.449-.175.671.115-.142.232-.284.348-.423.394-.478.763-.97,1.121-1.476a35.979,35.979,0,0,0,2.162-3.528c.046-.087.223-.1.194.028a15.3,15.3,0,0,1-.549,1.86c-.4,1.112-.894,2.191-1.28,3.31-.03.088-.061.178-.09.268a2.277,2.277,0,0,1,.6.06.061.061,0,0,1,.057.058c.475-.781.94-1.57,1.37-2.375a22.051,22.051,0,0,0,1.412-3.179,12.558,12.558,0,0,0,.715-3.353c.043-.733.036-1.47.1-2.2.13.375.274.746.391,1.123a7.994,7.994,0,0,1,.214.86c.013.152.028.3.042.456q.072.808.126,1.618c.032.5.065,1.011.048,1.518a11.09,11.09,0,0,1-.463,2.745c-.187.637-.414,1.26-.659,1.877l.1-.114c.4-.449.83-.881,1.274-1.288a10.123,10.123,0,0,1,1.434-1.134,3.475,3.475,0,0,1,1.457-.588,0,0,0,0,0,0,0c.016,0,.031,0,.046,0a.184.184,0,0,1,.029,0l.023,0h0a.074.074,0,0,1,.074.078.143.143,0,0,1-.088.112,5.528,5.528,0,0,0-1.344.944,10.362,10.362,0,0,0-1.965,2.608,12.882,12.882,0,0,0-.9,2.028c.133-.2.277-.391.426-.578a9.31,9.31,0,0,1,2.288-2.051,7.088,7.088,0,0,1,2.59-1.037l.026,0,.022,0,.014,0,.038-.006.019,0a.074.074,0,0,0,.019,0l.083-.01h.025c.119,0,.112.126.026.193-.387.308-.775.613-1.152.934a16.45,16.45,0,0,0-1.863,1.826c-.02.023-.041.046-.059.071h0c-.019.023-.039.046-.058.071l0,0c-.017.022-.035.045-.052.065l-.007.009c-.016.02-.031.041-.046.059q-.168.214-.324.436c.044.043.088.087.131.131a9.943,9.943,0,0,1,1.922-.991c-.069-.148-.114-.236-.12-.248q.089.1.177.224l.3-.125c.5-.21.992-.436,1.51-.6a4.016,4.016,0,0,1,.73-.16,12.924,12.924,0,0,1,.381-1.617c.047.583.109,1.119.183,1.611a2.171,2.171,0,0,1,.277.047.061.061,0,0,1,.052.083.19.19,0,0,1-.055.088.216.216,0,0,1-.038.031l-.182.1a15.965,15.965,0,0,0,.417,1.842,2.545,2.545,0,0,1,2.04.386c.033-.354.053-.713.064-1.062a4.349,4.349,0,0,0-.978-.862,3.668,3.668,0,0,1,.985.573c.022-1.317-.078-2.42-.078-2.42a14,14,0,0,1,.9,3.174,9.965,9.965,0,0,1,1.71,2.648q.156-.323.321-.62a9.991,9.991,0,0,0-1.412-4.166,11.391,11.391,0,0,1,2.2,2.915q.141-.2.282-.377a7.657,7.657,0,0,0-4.076-6.344,3.6,3.6,0,0,0-5.2,1.1c.921-4.3,6.493-4.805,10.483,1.46a10.355,10.355,0,0,0-4.836-5.507c-3.973-1.794-5.769,1.221-5.769,1.221.918-4.29,6-5.176,10.235-.268a19.85,19.85,0,0,0-3.663-6.008c2.477,1.716,4.31,4.635,5.658,7.827a28.733,28.733,0,0,0-3.2-8.185c3.983,2.685,7.253,9.23,7.365,9.456a31.193,31.193,0,0,1-2.42-11.068,61.683,61.683,0,0,0,4.144,9.731c-1.421-8.494-4.23-11.976-4.23-11.976,2.587,2.344,4.207,6.024,5.221,9.915a28.345,28.345,0,0,0,.831-8.715c2.39,4.176,2.322,11.617,2.322,11.617a31.262,31.262,0,0,1,2.815-10.949,62.686,62.686,0,0,0-.66,11.336c3.217-8.952,6.9-11.879,6.9-11.879a71.642,71.642,0,0,0-4.935,12.044c4.826-8.874,12.209-8.489,13.377-3.03,0,0-2.02-3.427-6.264-1.325a10.274,10.274,0,0,0-5.992,8.284,13.759,13.759,0,0,1,1.8-3.24,13.212,13.212,0,0,0-.971,2.628c2.675-3.441,5.437-3.737,5.437-3.737a17.484,17.484,0,0,0-5.648,7.6c.007.034.014.069.021.1a8.356,8.356,0,0,1,1.33-1.875,9.682,9.682,0,0,1,3.71-4.459,15.332,15.332,0,0,0-1.421,2.764,6.822,6.822,0,0,1,1.368-.508,16.545,16.545,0,0,1,2.595-3.8c-.1.2-2.41,4.824-.356,7.084.574-2.2,2.323-6.445,3.785-7.77,0,0-1.587,1.968-2.393,6.777a35.145,35.145,0,0,0,2.345-5.507,17.631,17.631,0,0,1-1.359,6.24c.167-.332,1.973-3.857,4.157-5.327a16.3,16.3,0,0,0-1.809,4.63,10.076,10.076,0,0,1,3.2-4.429,11.268,11.268,0,0,0-2.073,3.4,3.839,3.839,0,0,1,3.654-1.621,8.38,8.38,0,0,0-1.066-.956,8.967,8.967,0,0,1,3.12,1.939c.017-.039.035-.077.053-.116,0,0,0,.057,0,.159.291.263.591.559.894.891q.171-.086.345-.168c-.032.023-.138.1-.293.224.307.339.617.716.927,1.133-1.548-5.971-4.593-10.751-9.094-13.713.159.038,5.236,1.383,9.165,8.774a29.812,29.812,0,0,0-1.944-7.265,15.867,15.867,0,0,1,3.37,5.454c.055-.526.125-1.049.214-1.561.953-5.527-1.105-14.44-1.157-14.666,1.868,3.743,2.811,8.612,3.264,13.176.068-.146.135-.3.209-.44,2.508-5.019,3.667-13.125,3.667-13.125.863,5.324-1.6,10-2.426,19.315,4-11.059,10.919-12.752,10.919-12.752-5.216,3.433-8.479,9.3-9.721,16.64a15.235,15.235,0,0,1,1.9-4.286c2.288-4.278,4.729-5.8,4.729-5.8a21.484,21.484,0,0,0-3.3,5.871,7.293,7.293,0,0,0,.814,3.276c.242-.242.48-.461.711-.66.2-.991.3-2,.3-2l.41,1.435q.276-.2.53-.365c.142-1.024.372-1.945.372-1.945a15.885,15.885,0,0,0,.2,1.6,6.071,6.071,0,0,1,1.109-.5,15.957,15.957,0,0,0-.429-1.547,16.2,16.2,0,0,1,2.159,4.361l.588-.054a21.351,21.351,0,0,0-.779-3.868,28.319,28.319,0,0,1,1.956,3.756l.209-.02a10.911,10.911,0,0,1,.461-3.3,19.7,19.7,0,0,0,.392,3.213q.729-.074,1.447-.151c-.052-.274-.089-.438-.089-.438q.15.21.286.417c1.377-.148,2.723-.3,4.03-.463,0-.377-.009-.611-.009-.611q.137.292.244.582.993-.122,1.955-.248-.145-.282-.283-.57a2.866,2.866,0,0,0-1.191.236,1.6,1.6,0,0,1,.956-.747,18.065,18.065,0,0,1-.72-1.9,13.215,13.215,0,0,0,1.316,1.751,3.482,3.482,0,0,1,2.673.858l.186-.026q-.243-.61-.452-1.258a7.672,7.672,0,0,0-.995-1.326,6.319,6.319,0,0,1,.793.657,18.335,18.335,0,0,1-.5-2.379,16.509,16.509,0,0,0,2.076,3.5,14.35,14.35,0,0,0-.975-1.983,10.418,10.418,0,0,1,2.383,2.447l.6-.09c-1.109-3.427-1.925-6.467-1.925-6.467a21.968,21.968,0,0,0,1.746,3.394c0-.129,0-.2,0-.2q.06.193.124.387a19.5,19.5,0,0,0,1.507,2.028,11.769,11.769,0,0,0-1.679-3.684,13.746,13.746,0,0,1,2.506,4.185l.768-.124a14.926,14.926,0,0,0-3.028-5.34,11.048,11.048,0,0,1,3.644,3.026c-.23-.6-.432-1-.461-1.061a15.585,15.585,0,0,1,2.157,2.987l.145-.025a23.654,23.654,0,0,1-1.821-5.143,16.161,16.161,0,0,0,4.116,4.736q.8-.145,1.534-.284a31.842,31.842,0,0,0-3.925-7.038,23.664,23.664,0,0,1,6.284,6.581l.729-.146a25.487,25.487,0,0,1,.748-5.572,42.755,42.755,0,0,0,1.374,5.072l.056.045c.876-.188,1.564-.344,2.048-.456-.14-.246-.221-.377-.221-.377q.228.154.452.323l.08-.019c-.026-1.014-.091-1.729-.091-1.729a7.455,7.455,0,0,1,.387.972,32.327,32.327,0,0,0-.636-4.91,14.713,14.713,0,0,1,2.622,5.439c.476-.021,1.043-.043,1.693-.06a65.424,65.424,0,0,0,.213-9.907,58.077,58.077,0,0,1,1.172,7.1,14.631,14.631,0,0,1,1.253,1.7,65.357,65.357,0,0,0,.377-11.38,63.493,63.493,0,0,1,1.532,12.46q.634.007,1.309.021c.243-.967.427-1.838.559-2.524-.006-.09-.011-.137-.011-.137l.028.049c.171-.9.248-1.461.248-1.461q.16,1.282.246,2.458a15.358,15.358,0,0,1,.606,1.662q1,.034,2.072.086a10.944,10.944,0,0,0,.452-1.262q-.021.651-.087,1.281l.653.035a20.008,20.008,0,0,1,.918-2.181c-.124.731-.226,1.474-.311,2.217,1.269.078,2.6.177,3.974.3a14.794,14.794,0,0,1,2.579-3.061s-.641,1.166-1.548,3.159c3.272.324,6.8.8,10.462,1.478q-.233-.164-.471-.32a7.087,7.087,0,0,1,1.177.454q2,.385,4.047.857c.66.153,1.374.324,2.127.512-.076-.189-.124-.3-.131-.314.02.019.147.143.348.368,1.093.274,2.265.581,3.477.913a56.3,56.3,0,0,0-1.4-12.052,38.393,38.393,0,0,1,3.2,12.558l.316.091c2.48-5.025,3.624-13.038,3.624-13.038.667,4.112-.65,7.84-1.665,13.617.558.169,1.117.342,1.671.518,3.873-6.444,8.487-7.573,8.487-7.573a20.485,20.485,0,0,0-7,8.055q.857.284,1.688.575a11.077,11.077,0,0,1,2.223-2.083,15.457,15.457,0,0,0-1.579,2.312,52.922,52.922,0,0,1,4.913,2.009c4.022,1.938,5.561,3.842,8.027,4.962.03-.745.007-1.266.007-1.266a7.42,7.42,0,0,1,.519,1.487,10.605,10.605,0,0,0,1.906.532l.589.108c-.036-.176-.06-.331-.075-.464-.367-.613-.711-1.247-1.023-1.9a2.866,2.866,0,0,0-1.189.237,1.6,1.6,0,0,1,.955-.747,18.072,18.072,0,0,1-.72-1.9,13.207,13.207,0,0,0,1.316,1.751,3.624,3.624,0,0,1,2.976,1.117c-.206-.5-.4-1.013-.569-1.548a7.556,7.556,0,0,0-.993-1.322,6.291,6.291,0,0,1,.792.656,18.454,18.454,0,0,1-.5-2.379,16.529,16.529,0,0,0,2.08,3.51,14.385,14.385,0,0,0-.976-1.987,14.326,14.326,0,0,1,3.673,4.438c-1.447-4.17-2.62-8.547-2.62-8.547a21.976,21.976,0,0,0,1.748,3.4c0-.13,0-.2,0-.2q.06.2.125.391a19.446,19.446,0,0,0,1.5,2.024,11.768,11.768,0,0,0-1.679-3.685,15.455,15.455,0,0,1,2.8,4.89c.335.328.662.621.973.882a15.859,15.859,0,0,0-3.531-7.052,11.074,11.074,0,0,1,3.646,3.028c-.23-.6-.432-1-.461-1.061a16.078,16.078,0,0,1,2.4,3.423q.243.317.472.624a23.821,23.821,0,0,1-2.39-6.228c1.133,2.407,4.313,5,6.363,6.5a31.225,31.225,0,0,0-4.638-9.085,23.525,23.525,0,0,1,7,7.78,26.59,26.59,0,0,1,.765-6.917,36.836,36.836,0,0,0,3.327,9.7c.768-2.476.372-6.835.372-6.835a7.433,7.433,0,0,1,.387.971,32.338,32.338,0,0,0-.636-4.909c2.381,2.884,3.233,7.369,3.528,10.621a62.794,62.794,0,0,0,1-15.148,63.252,63.252,0,0,1,1.52,12.008c.17-.185.335-.354.491-.508a63.781,63.781,0,0,0,.792-14.086,63.649,63.649,0,0,1,1.474,16.795,41.311,41.311,0,0,0,2.19-8.387,39.79,39.79,0,0,1,.212,8.78l.1-.024a19.15,19.15,0,0,0,3.063-5.813,20.519,20.519,0,0,1-2.591,9.1,18.774,18.774,0,0,0,4.176-4.5,19.091,19.091,0,0,1-3.4,6.253c.59-.025.874-.052.874-.052s9.132,3.829,21.427,8.916c7.241,3,20.921,11.879,20.921,11.879s20.882,5.126,27.039,7.447c2.836,1.07,4.788,1.868,6.084,2.453.556.015,1.271.058,2.173.138,12.75,1.133,20.172.352,42.742,1.942,11.145.785,25.117,2.688,36.556,3.064a105.087,105.087,0,0,0,12.25-.418c3.134-.249,6-.5,8.832-.458,4.654.064,8.718.036,12.47.007,3.365-.025,6.48-.049,9.549-.007,4.975.068,9.785.5,16.23,0,4.94-.379,9.95-.882,14.735-1.508,5.047-.66,4.811-.594,9.347-2.461s4.961-3.47,8.794-5.008c4.466-1.793,8.617-3.269,12.681-4.64q-.064-.1-.126-.206a9.713,9.713,0,0,1-1.118-4.629c-.014-.474-.014-.947-.007-1.417,0,0,0,0,0,0,.007-.433.02-.862.033-1.282a32.491,32.491,0,0,1,.705-6.232l.009-.122c.01-.171.029-.339.046-.507.033-.339.067-.675.1-1.014a.3.3,0,0,1,.159-.225.148.148,0,0,1,.028-.011,6.077,6.077,0,0,1,1.092-.646,16.512,16.512,0,0,1,2.6-.889q1.473-.4,2.953-.778a47.955,47.955,0,0,1,6.16-1.212c.8-.094,1.608-.149,2.414-.177.614-.022,1.229-.028,1.844-.025.672,0,1.345.017,2.018.036,1.761.047,3.525.092,5.284.2a10.967,10.967,0,0,1,.27-1.713c.006-.025.012-.049.016-.073a14.2,14.2,0,0,1,.423-1.466h0c0-.006,0-.012.006-.018.1-.281.2-.558.316-.833a26.6,26.6,0,0,1,2.27-4.222c.027-.043.055-.087.084-.13.455-.7.924-1.4,1.4-2.087a11.4,11.4,0,0,1,1.557-1.9,10.777,10.777,0,0,1,4.4-2.081c1.789-.539,3.585-1.054,5.389-1.534,1.7-.449,3.4-.818,5.121-1.16q.452-.374.911-.745c.815-.656,1.642-1.3,2.471-1.939a7.093,7.093,0,0,1,2.609-1.58,4.894,4.894,0,0,1,1.5-.052l.2.017c.605.055,1.209.117,1.815.181q.661.072,1.318.146c.771.09,1.542.183,2.312.278l.847.106c.626.077,1.251.156,1.876.243l.048.007.106.015.1.014.052.007.033.006c.033,0,.068.009.1.015h0c.049.007.1.014.148.023l.035,0,.148.023a5.757,5.757,0,0,1,1.554.437c.827-.325,1.7-.575,2.53-.847,1.018-.332,2.042-.64,3.078-.908a24.057,24.057,0,0,1,6.3-.879,14.533,14.533,0,0,1,3.012.34,8.46,8.46,0,0,1,2.5,1.037,19.965,19.965,0,0,1,5.155-6.93c.372-.329.753-.643,1.138-.948.9-1.036,1.855-2.018,2.791-3.016.294-.313.586-.623.879-.936q1.321-1.4,2.652-2.794,3.541-3.717,7.142-7.378c1.04-1.06,2.068-2.135,3.14-3.162.02-.02.042-.041.064-.059a.189.189,0,0,1,.026-.026,9.619,9.619,0,0,1,2.765-1.947l.106-.043.01,0c.056-.023.112-.045.169-.067l.014,0c.064-.023.129-.045.193-.067,1.269-.413,3.391-1.794,4.707-1.777v229.562Zm537.686-76.3c.756-.224,1.508-.449,2.25-.676a63.219,63.219,0,0,0,6.958-2.461h.012c.152-.053.3-.129.455-.2-1.106-.323-2.749.291-4.356.9-1.88.718-3.709,1.436-4.564.652a7.594,7.594,0,0,0-1.89.745C-5234.082,2272.372-5233.7,2272.718-5233.315,2273.061Zm-1.745-1.6a14.487,14.487,0,0,1,2.412-.262,1.32,1.32,0,0,1-.118-.158c1.55-5.712,5.082-12.2,5.5-15.736-1.528.292-7.815.13-9.345.413-1.635-2.753-3.315-5.572-5.082-8.379a2.2,2.2,0,0,1-.287-1.949c.023-2.219.523-5.424-.1-6.375-.009-.016-.021-.032-.029-.048l-1.252-.808-5.441-1.279h-.01c-.229-.326-.478-.652-.737-.965s-.51-.652-.771-.976c-.715-.9-1.453-1.789-2.222-2.656-.138-.159-.277-.317-.417-.476l-.482-.532a1.656,1.656,0,0,0-.239-.249c-.281-.324-.585-.65-.9-.965-.423-.455-.866-.909-1.311-1.344a50.7,50.7,0,0,0-5.767-4.91c-.033-.022-.054-.033-.065-.043,5.359.477,10.83,1.3,16.318,2.177l-7.137-8.452-7.741-2.739-10.567-10.29-5.689-8.833h-.011l-2.6-4.044s-.008-.152-.024-.417c-.006-.077-.012-.162-.019-.255-.005-.075-.008-.155-.011-.24-.028-.459-.064-1.065-.107-1.748-.009-.113-.017-.227-.023-.342-.054-.923-.129-1.962-.194-2.959-.055-.674-.087-1.323-.14-1.909,0-.054-.012-.1-.012-.141-.01-.087-.01-.174-.021-.259-.031-.342-.064-.655-.1-.924-7.777,3.1-20.125,8.337-27.2,12.913-15.919,10.3-28.542,10.889-44.431,19.444a140.718,140.718,0,0,1-16.66,7.528,8.758,8.758,0,0,1,1.475,1.63,37.07,37.07,0,0,1,3.816,7.734c.673,1.671,1.389,3.35,1.961,5.058.436,1.3.724,2.653,1.247,3.919a3.642,3.642,0,0,1,.813.112,6.562,6.562,0,0,1,3.495,2.959,28.245,28.245,0,0,1,2.329,4.472c.818,1.863,1.693,3.7,2.463,5.582a46.271,46.271,0,0,1,2.428,7.533q.094.426.177.854a20.725,20.725,0,0,1,3.256,7.115s.974-10.062,2.6-13.309c0,0-.647,7.142.975,9.739,0,0,2.6-2.272,3.247-10.386a32.221,32.221,0,0,1,.972,12.008s1.945-6.163,3.895-8.435c-.066.127-2.9,5.564-.975,9.736,0,0,.974-6.491,5.841-9.411-.091.138-3.467,5.146-2.482,9.126.649-2.358,2.361-7.546,5.671-11.064-.126.252-3.025,6.052-.447,8.887.718-2.761,2.914-8.086,4.748-9.749,0,0-1.992,2.471-3,8.5a44.119,44.119,0,0,0,2.943-6.909,22.169,22.169,0,0,1-1.7,7.828c.208-.417,2.475-4.839,5.215-6.684a20.437,20.437,0,0,0-2.271,5.808,12.664,12.664,0,0,1,4.017-5.556,14.14,14.14,0,0,0-2.6,4.267c3.005-3.486,6.044-1.769,6.319-.946a3.967,3.967,0,0,0-3.569.275,7.524,7.524,0,0,0-3.011,3.9v0a6,6,0,0,0,3.835-2.808,8.676,8.676,0,0,1-1.232,4.314,25.929,25.929,0,0,1,4.129-3.3,9.438,9.438,0,0,1,.758-2.387s-.037.807.024,1.909c.487-.282.994-.553,1.522-.8a15.652,15.652,0,0,0-1.492,1.266,16.24,16.24,0,0,0,.348,2.4,4.815,4.815,0,0,0,1.433-2.3,7.878,7.878,0,0,1-1.1,3.435c.06.158.122.313.19.459a8.092,8.092,0,0,0,2.553-3.619,5.457,5.457,0,0,1,.1,1.351,16.1,16.1,0,0,1,1.817-3.273s-.824,3.569-.275,5.764c0,0,2.2-2.744,2.471-9.058a14.457,14.457,0,0,1,.574,4.83,33.3,33.3,0,0,1,2.72-5.379s-1.646,5.215-.824,8.509c0,0-.273-3.843,3.294-9.058,0,0-1.705,4.878-.752,8.426a31.342,31.342,0,0,0,1.85-7.877,17.113,17.113,0,0,1,.549,4.94s.55-1.92,1.1-3.842a20.417,20.417,0,0,0,.823,4.117,8.992,8.992,0,0,0,1.372-6.038,14.8,14.8,0,0,1,2.4,6.945,20,20,0,0,0-1.022-6.671c3.567,5.215,3.293,9.058,3.293,9.058.824-3.294-.823-8.509-.823-8.509a33.342,33.342,0,0,1,2.719,5.379,14.486,14.486,0,0,1,.575-4.83c.274,6.313,2.47,9.058,2.47,9.058.549-2.2-.274-5.764-.274-5.764a16.173,16.173,0,0,1,1.818,3.273,5.5,5.5,0,0,1,.1-1.351,8.115,8.115,0,0,0,2.554,3.619c.069-.146.132-.3.191-.459a7.873,7.873,0,0,1-1.1-3.435,4.8,4.8,0,0,0,1.434,2.3,16.456,16.456,0,0,0,.348-2.4,15.309,15.309,0,0,0-1.493-1.266c.529.251,1.036.52,1.524.8.061-1.1.024-1.91.024-1.91a9.524,9.524,0,0,1,.757,2.388,25.935,25.935,0,0,1,4.129,3.3,8.669,8.669,0,0,1-1.232-4.314,6,6,0,0,0,3.833,2.808v0a7.523,7.523,0,0,0-3.011-3.9,3.964,3.964,0,0,0-3.567-.275c.273-.823,3.312-2.54,6.317.944a14.117,14.117,0,0,0-2.6-4.265,12.646,12.646,0,0,1,4.015,5.556,20.394,20.394,0,0,0-2.27-5.808c2.739,1.845,5.007,6.267,5.215,6.684a22.143,22.143,0,0,1-1.7-7.828,43.985,43.985,0,0,0,2.942,6.909c-1.01-6.034-3-8.5-3-8.5,1.833,1.663,4.029,6.988,4.749,9.749,2.577-2.834-.322-8.635-.448-8.887,3.31,3.518,5.023,8.706,5.67,11.064.985-3.98-2.391-8.988-2.481-9.126,4.866,2.92,5.841,9.411,5.841,9.411,1.92-4.171-.909-9.61-.975-9.736,1.948,2.272,3.895,8.435,3.895,8.435a32.221,32.221,0,0,1,.972-12.008c.65,8.114,3.246,10.386,3.246,10.386,1.622-2.6.975-9.739.975-9.739,1.014,2.031,1.775,6.726,2.2,9.959.6-.088,1.135-.141,1.6-.17a17.672,17.672,0,0,1,5.933-7.513c-1.184,2.768-2.369,6.137-3.115,8.348.174.193.377.416.606.665a14.135,14.135,0,0,1,7.705-3.819,13.459,13.459,0,0,0-5.642,5.984C-5236.534,2270.033-5235.822,2270.737-5235.06,2271.458Zm-41.883-3.075a12.553,12.553,0,0,0,2.24,1.134,10.772,10.772,0,0,0-2.149-3.485A10.532,10.532,0,0,1-5276.943,2268.383Zm-36.856,1.134a12.6,12.6,0,0,0,2.239-1.134,10.5,10.5,0,0,1-.091-2.351A10.744,10.744,0,0,0-5313.8,2269.517Zm1086.5-2.9-.024-.082-.106.082Zm-11.543,0q-.052-.169-.1-.34c-.544-.8-1.04-1.635-1.54-2.465q-.349-.581-.711-1.152-.459.392-.9.8c1.044,1.027,2.056,2.094,3.067,3.154Zm-5.842,0-.178-.168-.137.168Zm-3.02,0q.746-.694,1.543-1.328-.41-.349-.832-.685c-.689-.552-1.4-1.093-2.131-1.606q-.114.267-.226.534c-.426,1.021-.823,2.056-1.232,3.085Zm-5.822,0q.229-.55.465-1.1c.394-.92.771-1.845,1.175-2.759q.263-.593.549-1.174a19.645,19.645,0,0,0-2.831-1.342q-.112.906-.208,1.814c-.158,1.517-.284,3.04-.446,4.558Zm-2.947,0c.021-.766.1-1.528.176-2.291.158-1.528.356-3.051.579-4.572a13.923,13.923,0,0,0-1.766-.334q.25,1.117.424,2.249a34.1,34.1,0,0,1,.316,4.947Zm-7.976,0-.09-.207a32.615,32.615,0,0,0-2.746-5.156c-.638.507-1.272,1.02-1.883,1.558a29.414,29.414,0,0,0-3.553,3.8h.749l-.171-.158q.229.073.453.158Zm-115.257,0c-.11-.121-.22-.242-.331-.362l-.114.123-.22.239Zm-1.486,0,.241-.153c.231-.147.454-.305.678-.462q-.724-.771-1.483-1.508-.286-.278-.578-.551-.4.428-.78.871-.751.874-1.436,1.8Zm-5.815,0,.063-.087a14.764,14.764,0,0,1,2.151-2.358c.459-.405.925-.8,1.4-1.189-1.042-.922-2.118-1.8-3.206-2.672q-.409-.327-.823-.649l-.048.184a46.668,46.668,0,0,0-1.143,6.771Zm-4.241,0a22.817,22.817,0,0,1,.637-2.63,27.872,27.872,0,0,1,2.17-5.111c-1.054-.8-2.128-1.566-3.227-2.3q-.921-.614-1.866-1.195c0,.006,0,.012,0,.019.058,1.889.181,3.776.348,5.659.158,1.794.4,3.582.54,5.378,0,.059.009.119.013.178Zm-7.036,0c-.2-.429-.375-.865-.552-1.3-.116.1-.23.208-.343.314q.283.491.554.989Zm-4,0q.4-.339.815-.666a43.418,43.418,0,0,0-3.367-3.789q-.264-.265-.531-.525-.205.662-.377,1.336c-.2.789-.375,1.585-.524,2.385a14.484,14.484,0,0,1,2.352,1.258Zm-2.11,0q-.91-.651-1.867-1.227l-.012-.007q-.115.615-.212,1.234Zm-4.338,0a29.3,29.3,0,0,1,2.62-5.687c-1.136-1.055-2.322-2.052-3.539-3.018q-1.088-.865-2.2-1.7,0,1.159.04,2.319c.057,1.889.181,3.774.348,5.657.064.726.142,1.451.221,2.177q.4.119.8.254Zm-5.182,0q-.034-.39-.067-.781a13.752,13.752,0,0,0-2.536-.412q.24.6.485,1.193Zm-3.913,0q-.6-1.579-1.157-3.176c-.4-1.152-.788-2.31-1.167-3.469a26.824,26.824,0,0,0-2.341,2.261,37.258,37.258,0,0,1,3.339,3.891q.18.244.353.492Zm-4.008,0q-.322-.35-.651-.694-.1.077-.187.155a7.346,7.346,0,0,1-.723.539Zm192.44-.827-.083.109c-.105.143-.207.285-.307.43a13.068,13.068,0,0,1,1.305-1.315c.228-.258.463-.511.708-.756a11.8,11.8,0,0,1-.048-1.382A32.144,32.144,0,0,0-4229.391,2265.794Zm-147.024.251q.119-.22.247-.434c-.7-1.784-1.339-3.592-1.948-5.409a.971.971,0,0,1-.151.214,3.513,3.513,0,0,1-.514.464c-.379.3-.786.551-1.175.832A31.344,31.344,0,0,1-4376.415,2266.044Zm-63.914-2.853c.663.87,1.229,1.809,1.89,2.682.114.152.408.074.336-.142a18.236,18.236,0,0,0-2.023-4.163q-.163.727-.336,1.452Q-4440.394,2263.1-4440.328,2263.191Zm15.215,2.381c.041.042.083.084.126.125a3.966,3.966,0,0,0,1.3.206,5.5,5.5,0,0,0,1.085-.1q-.25-.259-.5-.515-.537-.54-1.091-1.06c-.3.376-.6.756-.9,1.136-.093-.035-.185-.074-.276-.115A2.931,2.931,0,0,0-4425.113,2265.572Zm186.239-2.277c-.021-.161-.029-.322-.046-.461-.01-.083-.023-.165-.038-.248-.2-.413-.422-.817-.633-1.227l-.211.167C-4239.491,2262.116-4239.185,2262.707-4238.874,2263.3Zm-3.81-.4q.222-.133.445-.263.373-.217.75-.425-.39-.594-.808-1.171a41.408,41.408,0,0,0-3.8-4.5q-.47.91-.919,1.831-.269.551-.529,1.105A18.444,18.444,0,0,1-4242.684,2262.894Zm-185.43-1.4c.148-.082.295-.168.439-.256l-.06-.048Q-4427.926,2261.335-4428.114,2261.489Zm-10.951-.006c-.066-.21-.13-.418-.192-.628q-.276-.406-.537-.821-.059.28-.118.56Zm196.489-4.548a35.075,35.075,0,0,1,2.69,4.434l.239-.117-.046-.091c-.367-.726-.669-1.477-.972-2.23-.619-1.545-1.2-3.11-1.744-4.681q-.458-1.31-.891-2.629-.53.847-1.038,1.708-.252.429-.5.862A34.971,34.971,0,0,1-4242.576,2256.936Zm-187.125,3.428c-.028.036-.057.072-.084.109q-.157.213-.307.43.4-.469.85-.9l-.207-.158Q-4429.578,2260.1-4429.7,2260.364Zm-4.05-.022c.023.053.057.062.09.048.033-.137.067-.277.1-.413a19.947,19.947,0,0,1,.048-3.027q-.524-.342-1.056-.67A12.441,12.441,0,0,0-4433.751,2260.342Zm8.682-.565a25.649,25.649,0,0,1,3.863-1.815q.187-.07.375-.136c-.3-.993-.574-1.995-.783-3.011q-.043-.211-.082-.423c-.162.159-.316.327-.47.493-.527.566-1.043,1.148-1.535,1.747a27.148,27.148,0,0,0-1.927,2.658Q-4425.347,2259.531-4425.069,2259.777Zm-6.307-.284c.091-.255.191-.5.3-.75l.037-.08-.1-.074A8.892,8.892,0,0,0-4431.376,2259.493Zm181.487-.823.132.031q.313-.524.64-1.039c.529-.835,1.077-1.667,1.645-2.483-1.238-1.173-2.54-2.274-3.877-3.337q-.779-.619-1.57-1.223c-.085.89-.211,1.779-.327,2.667q-.191,1.464-.387,2.931c-.1.742-.2,1.484-.3,2.226.457-.042.915-.065,1.373-.065A11.872,11.872,0,0,1-4249.889,2258.671Zm-189.3-.8c-.02-.161-.029-.322-.046-.46q-.009-.072-.021-.144c-.021.118-.043.237-.064.355Zm3.323-1.458a.185.185,0,0,0,.336-.142q-.048-.31-.093-.62-.553-.322-1.112-.631A11.665,11.665,0,0,0-4435.867,2256.408Zm-680.317-89.056,1.751-.231a1.878,1.878,0,0,0-.624-.1A2.106,2.106,0,0,0-5116.185,2167.352Zm24.173-2.112.077,0-.028-.115Zm.523-.013.459-.012a12.008,12.008,0,0,0-.449-1.115q-.138.263-.277.561C-5091.668,2164.853-5091.579,2165.042-5091.488,2165.227Zm8.725-.218.148,0c-.208-.587-.442-1.225-.686-1.851A12.462,12.462,0,0,0-5082.763,2165.009Zm223.987-.7-.01-.021-.011.02Zm1881.128-.036a4.67,4.67,0,0,0-1.722-1.763,3.589,3.589,0,0,0-.484-.232A23.454,23.454,0,0,0-2977.648,2164.273Zm-1882.471-.051a8.732,8.732,0,0,0-.239-.9c-.063.279-.124.57-.18.872Zm-185.081-.051.71-.014a2.046,2.046,0,0,0-.315-.024A2.026,2.026,0,0,0-5045.2,2164.171Zm45.405-.794.19,0c-.072-.078-.146-.152-.218-.224C-4999.812,2163.227-4999.8,2163.3-4999.8,2163.377Zm42.5-.615a7.655,7.655,0,0,1,.384-1.147c-.251-.164-.463-.287-.615-.372A3.9,3.9,0,0,0-4957.3,2162.762Zm1.719-.026.031-.088-.051-.044C-4955.595,2162.648-4955.588,2162.692-4955.58,2162.736Zm.272-.724a17.221,17.221,0,0,1,.988-2.065q-.215-.293-.441-.578a6.638,6.638,0,0,0-.85,2.5C-4955.512,2161.914-4955.411,2161.962-4955.308,2162.012Zm3.179-1.909c.041-.084.082-.169.125-.254a18.1,18.1,0,0,0-.6-1.966,8.217,8.217,0,0,0-.455,1.159Q-4952.588,2159.542-4952.129,2160.1Zm1695.814-1.043a7.356,7.356,0,0,0,1.008-2.068,2.343,2.343,0,0,0-1.776.888,5.269,5.269,0,0,0,.336,1.171Zm-2.448-.052q.144-.287.306-.558c.041-.278.086-.564.133-.853a11.6,11.6,0,0,0-.514,1.409Zm-1.045-.025a9.944,9.944,0,0,1,1.707-2.642,13.965,13.965,0,0,1,.9-3.171s-.1,1.1-.079,2.418a3.682,3.682,0,0,1,.984-.573,4.351,4.351,0,0,0-.977.862c.01.349.03.709.063,1.063a2.547,2.547,0,0,1,2.039-.386,18.848,18.848,0,0,0,.655-3.8,12.637,12.637,0,0,1,.368,1.542c.283-.545.6-1.076.921-1.6.332-.535.674-1.064,1.012-1.6a3.52,3.52,0,0,0-4.916-.709,7.661,7.661,0,0,0-4.076,6.343c.094.121.188.247.283.378a11.4,11.4,0,0,1,2.2-2.915,9.992,9.992,0,0,0-1.412,4.167q.162.294.317.612Zm115.053-.195q.051-.12.093-.243c-.077,0-.155,0-.232-.008.023.1.04.186.052.25Zm-26.569-.389a1.2,1.2,0,0,0-.4-.7c-.535.24-1.07.478-1.621.675Zm-5.76-.069a13.64,13.64,0,0,0-1.921-.837,8.377,8.377,0,0,0-1.059-.2c.011.062.025.126.032.19a1.19,1.19,0,0,1-.136.815l0,.005Q-3178.626,2158.314-3177.083,2158.33Zm32.077-.525a1.188,1.188,0,0,0,.469.322,5.664,5.664,0,0,0,.143-1.56C-3144.885,2156.993-3145.251,2157.461-3145.007,2157.8Zm2.051.3a23.661,23.661,0,0,1-.094-2.512c-.142.1-.383.253-.651.442C-3143.253,2157.161-3142.956,2158.1-3142.956,2158.1Zm-139.957-.248a8.334,8.334,0,0,0-.168-1,8.326,8.326,0,0,0-1.5-1.35c.376.807.686,1.589.937,2.294Zm169.083-.38a27.724,27.724,0,0,1,1.56-4.272,8.317,8.317,0,0,0-1.5,1.35A6.358,6.358,0,0,0-3113.83,2157.473Zm-214.874-1.957a4.673,4.673,0,0,0-1.722,1.763,23.355,23.355,0,0,0,2.2-1.993A3.624,3.624,0,0,0-3328.7,2155.516Zm190.8,1.589a12.1,12.1,0,0,0-.623-1.8c.047.288.091.574.133.852A8.355,8.355,0,0,1-3137.9,2157.105Zm-2.366-.036a4.374,4.374,0,0,0,.5-1.488,2.344,2.344,0,0,0-1.776-.889A5.714,5.714,0,0,0-3140.271,2157.069Zm38.6-.122.407-.058a20.229,20.229,0,0,1,2.6-1.987c.038-.215.086-.433.146-.653a13.524,13.524,0,0,0-1.062-1.463,3.277,3.277,0,0,0-2.048.432,5.986,5.986,0,0,0-2.4,3.111h0a4.777,4.777,0,0,0,3.056-2.238A6.277,6.277,0,0,1-3101.666,2156.948Zm-192.2-.2a4.387,4.387,0,0,0-1.367-1.228,3.281,3.281,0,0,0-2.05-.431c-.255.3-.523.655-.792,1.051.661.107,1.386.218,2.182.332,0-.051,0-.077,0-.077l.051.085C-3295.22,2156.564-3294.564,2156.654-3293.863,2156.744Zm194.341-.107.75-.11a8.153,8.153,0,0,1,.019-.865A10.73,10.73,0,0,0-3099.522,2156.637Zm1.706-.249.391-.057c-.177-.42-.366-.812-.561-1.177C-3097.949,2155.55-3097.9,2155.971-3097.817,2156.388Zm-217.46-.073,1.112-.125c.092-.368.18-.749.257-1.136-.557-.625-.942-.99-1.005-1.05A16.161,16.161,0,0,0-3315.277,2156.315Zm170-.279c-.071.059-.142.119-.216.175.334-.181.671-.367,1.012-.541q-.025-.161-.056-.317Q-3144.894,2155.713-3145.281,2156.036Zm-167.847.036.073-.008-.076-.095Q-3313.129,2156.021-3313.128,2156.073Zm169.173-.66a8.189,8.189,0,0,1,.919-.361l.005-.125a7.724,7.724,0,0,0-.922.373,6.349,6.349,0,0,1,.931-.572c.039-.733.109-1.388.19-1.952l-.312.149c-.544.259-1.091.518-1.615.817.107.191.212.393.314.6a4.562,4.562,0,0,1,1.027-.613c.062-.022.139.01.129.071a.089.089,0,0,1-.018.041c-.194.279-.4.553-.61.817q-.12.146-.245.287C-3144.089,2155.1-3144.021,2155.257-3143.955,2155.413Zm-2.276-.158a8.839,8.839,0,0,0,1.417-.658l.079-.052c-.071-.248-.146-.479-.221-.687q-.21.126-.414.262a5.991,5.991,0,0,0-1.036.868Q-3146.316,2155.121-3146.231,2155.255Zm63.765-.543.926-.078a15.245,15.245,0,0,0-.4-2.929c-.063.06-.449.426-1.006,1.051C-3082.807,2153.44-3082.639,2154.105-3082.467,2154.712Zm-1.215-.18a4.427,4.427,0,0,1-.041-.859l-.151.188Zm-69.235-2.246c-.246.135-.5.261-.753.384-.069.255-.13.514-.179.773-.028.145-.051.292-.071.439.227-.361.469-.714.692-1.075l.327-.53A.091.091,0,0,1-3152.916,2152.285Zm84.487.9.185-.025a3.613,3.613,0,0,0-.384-.177C-3068.563,2153.055-3068.5,2153.122-3068.43,2153.19Zm-88.984-.545a.013.013,0,0,0,0,.007c0,.01.007.02.01.033s.01.026.014.039.009.032.014.048l.009.023a.389.389,0,0,0,.02.058c.026.077.052.152.08.226.007-.21.02-.42.038-.63C-3157.289,2152.514-3157.353,2152.579-3157.413,2152.644Zm-2.252-.471c-.03.061-.061.12-.09.181.069.143.143.285.219.426.187-.2.384-.4.588-.587.007-.19.022-.381.039-.571C-3159.154,2151.819-3159.406,2152-3159.666,2152.174Zm3.02-2.882a14.008,14.008,0,0,1-1.273,1.447c.049.183.094.366.14.551.039-.026.078-.051.117-.075.219-.137.443-.268.673-.385.107-.533.238-1.06.378-1.586Zm-1519.269,1.1h.015Zm2.724-.364-.65.087.9-.119Zm5.62-.936,5.162-.962-5.22-.294Zm1626.471-.078.75-.007c-.323-.8-.635-1.464-.913-2Q-3041.17,2147.973-3041.1,2149.018Zm-1636.739-2.07-.009,0,.039-.011ZM-4679.624,2140.124Zm-.2-.006h-.055ZM-4679.941,2140.114ZM-4681.292,2140.072Zm10.939-4.267v.054c0-.018,0-.036.006-.055Zm-100.534,65.121c.119-.067.146-.067.133,0Z"
        transform="translate(5771.5 -2060.5)" />
</svg>